<?xml version="1.0" encoding="utf-8"?>
<!-- Generator: Adobe Illustrator 16.0.0, SVG Export Plug-In . SVG Version: 6.00 Build 0)  -->
<!DOCTYPE svg PUBLIC "-//W3C//DTD SVG 1.1//EN" "http://www.w3.org/Graphics/SVG/1.1/DTD/svg11.dtd">
<svg version="1.1" id="Layer_1" xmlns="http://www.w3.org/2000/svg" xmlns:xlink="http://www.w3.org/1999/xlink" x="0px" y="0px"
	 width="190.206px" height="190.201px" viewBox="0 0 190.206 190.201" enable-background="new 0 0 190.206 190.201"
	 xml:space="preserve">
<g>
	<g>
		<path fill="#333333" stroke="#333333" stroke-width="0.5" stroke-miterlimit="10" d="M190.018,95.026l-0.577-0.502
			c-2.884-2.927-4.761-6.748-6.577-10.442c-1.5-3.05-3.051-6.203-5.17-8.889c-0.484-0.615-1.012-1.202-1.561-1.771
			c0.191-0.776,0.356-1.558,0.473-2.343c0.492-3.385,0.258-6.891,0.031-10.28c-0.274-4.108-0.558-8.356,0.473-12.324l0.251-0.734
			c0.014-0.034,0.01-0.07-0.011-0.102c-0.018-0.032-0.047-0.053-0.084-0.062l-0.752-0.146c-3.959-1.094-7.498-3.464-10.916-5.755
			c-2.824-1.893-5.744-3.849-8.92-5.113c-0.729-0.291-1.479-0.535-2.24-0.754c-0.219-0.769-0.467-1.527-0.76-2.264
			c-1.267-3.178-3.222-6.097-5.113-8.919c-2.293-3.421-4.662-6.957-5.754-10.91l-0.146-0.762c-0.01-0.034-0.029-0.064-0.063-0.084
			c-0.032-0.017-0.069-0.021-0.103-0.01l-0.727,0.248c-3.978,1.035-8.224,0.75-12.333,0.477c-3.391-0.227-6.896-0.461-10.279,0.03
			c-0.777,0.114-1.55,0.277-2.316,0.468c-0.574-0.556-1.168-1.089-1.789-1.579c-2.686-2.119-5.838-3.669-8.889-5.168
			c-3.695-1.816-7.518-3.694-10.438-6.571l-0.509-0.585c-0.047-0.055-0.14-0.055-0.189,0l-0.502,0.578
			C91.6,3.642,87.78,5.52,84.088,7.335c-3.05,1.499-6.204,3.05-8.891,5.169c-0.614,0.485-1.2,1.013-1.771,1.561
			c-0.777-0.193-1.557-0.359-2.342-0.473c-3.387-0.49-6.893-0.258-10.281-0.031c-4.108,0.274-8.356,0.558-12.324-0.472l-0.732-0.252
			c-0.035-0.014-0.072-0.009-0.104,0.01c-0.031,0.018-0.053,0.049-0.06,0.084l-0.147,0.752c-1.093,3.961-3.463,7.498-5.754,10.918
			c-1.892,2.823-3.848,5.742-5.114,8.92c-0.291,0.729-0.535,1.479-0.754,2.238c-0.768,0.221-1.525,0.468-2.263,0.762
			c-3.178,1.265-6.099,3.221-8.921,5.114c-3.42,2.291-6.956,4.661-10.908,5.752l-0.761,0.147c-0.035,0.008-0.066,0.029-0.084,0.062
			c-0.02,0.031-0.022,0.069-0.012,0.103l0.249,0.725c1.033,3.977,0.749,8.225,0.477,12.333c-0.229,3.39-0.461,6.896,0.031,10.28
			c0.111,0.777,0.275,1.549,0.467,2.317c-0.557,0.575-1.089,1.168-1.58,1.791c-2.119,2.684-3.669,5.838-5.168,8.888
			c-1.816,3.695-3.694,7.516-6.571,10.437l-0.585,0.51c-0.027,0.023-0.043,0.057-0.043,0.093c0,0.036,0.016,0.071,0.043,0.095
			l0.579,0.504c2.883,2.927,4.761,6.747,6.577,10.44c1.499,3.051,3.049,6.203,5.168,8.891c0.486,0.615,1.013,1.201,1.562,1.77
			c-0.192,0.777-0.357,1.561-0.473,2.346c-0.493,3.385-0.258,6.891-0.032,10.279c0.275,4.107,0.561,8.355-0.471,12.322l-0.252,0.734
			c-0.012,0.033-0.009,0.07,0.009,0.104c0.02,0.031,0.049,0.053,0.085,0.063l0.752,0.146c3.96,1.094,7.497,3.465,10.917,5.756
			c2.823,1.891,5.743,3.846,8.92,5.111c0.731,0.291,1.48,0.547,2.242,0.766c0.22,0.766,0.466,1.52,0.758,2.252
			c1.268,3.18,3.224,6.098,5.114,8.92c2.291,3.42,4.661,6.957,5.752,10.91l0.149,0.762c0.007,0.035,0.027,0.066,0.06,0.084
			c0.021,0.012,0.041,0.018,0.063,0.018c0.014,0,0.025-0.002,0.04-0.008l0.725-0.248c3.977-1.035,8.225-0.752,12.333-0.477
			c3.392,0.227,6.898,0.461,10.281-0.031c0.775-0.113,1.548-0.275,2.314-0.467c0.575,0.555,1.168,1.088,1.79,1.578
			c2.688,2.121,5.839,3.67,8.892,5.17c3.692,1.816,7.515,3.695,10.435,6.572l0.51,0.584c0.024,0.025,0.06,0.043,0.096,0.043
			c0.034,0,0.068-0.018,0.094-0.043l0.504-0.578c2.926-2.883,6.747-4.76,10.439-6.578c3.052-1.498,6.204-3.049,8.892-5.17
			c0.614-0.484,1.201-1.012,1.771-1.563c0.776,0.193,1.559,0.359,2.345,0.477c3.383,0.492,6.891,0.256,10.278,0.031
			c4.11-0.275,8.356-0.561,12.325,0.473l0.733,0.25c0.013,0.004,0.024,0.006,0.04,0.006c0.021,0,0.043-0.006,0.063-0.016
			c0.031-0.02,0.054-0.051,0.063-0.084l0.145-0.752c1.095-3.961,3.465-7.498,5.756-10.918c1.895-2.822,3.851-5.742,5.115-8.922
			c0.289-0.727,0.531-1.471,0.75-2.229c0.771-0.221,1.526-0.479,2.266-0.771c3.179-1.268,6.098-3.223,8.919-5.113
			c3.422-2.293,6.957-4.664,10.909-5.754l0.764-0.146c0.033-0.012,0.063-0.029,0.084-0.063c0.018-0.033,0.021-0.068,0.01-0.104
			l-0.248-0.725c-1.033-3.979-0.75-8.227-0.478-12.332c0.229-3.393,0.463-6.896-0.029-10.283c-0.112-0.775-0.276-1.547-0.469-2.314
			c0.557-0.574,1.09-1.168,1.579-1.791c2.119-2.686,3.67-5.838,5.169-8.889c1.817-3.693,3.694-7.514,6.571-10.436l0.584-0.512
			c0.027-0.024,0.043-0.059,0.043-0.095C190.061,95.085,190.047,95.052,190.018,95.026 M174.319,119.175
			c0.464,3.191,0.242,6.509,0.029,9.718c-0.264,3.922-0.535,7.978,0.459,11.803l0.193,0.562l-0.593,0.117
			c-3.801,1.049-7.179,3.312-10.44,5.498c-2.672,1.791-5.437,3.644-8.429,4.834c-0.187,0.071-0.374,0.135-0.562,0.203
			c-0.043,0.016-0.088,0.03-0.131,0.047c-0.045,0.019-0.092,0.033-0.139,0.051c-0.605,0.216-1.218,0.41-1.843,0.574
			c-0.089,0.022-0.181,0.039-0.271,0.063c-6.295,1.563-13.543,0.604-20.354-2.772c-2.506-1.242-4.834-2.735-6.99-4.356
			c-0.051-0.037-0.097-0.074-0.146-0.11c-0.047-0.035-0.092-0.07-0.137-0.105c-0.478-0.36-0.941-0.729-1.399-1.104
			c-0.099-0.078-0.193-0.156-0.292-0.236c-3.727-3.073-6.885-6.448-9.477-9.401c-1.324-1.509-2.742-3.181-4.172-4.97
			c0.437-1.375,0.729-2.84,0.828-4.379c0.075-1.219,0.04-2.424-0.069-3.603c0.97,0.688,2,1.324,3.095,1.869
			c1.359,0.674,2.75,1.16,4.135,1.47c0.102,0.021,0.197,0.043,0.297,0.063c0.463,0.096,0.926,0.174,1.385,0.227
			c0.047,0.005,0.094,0.009,0.142,0.015c0.045,0.004,0.09,0.009,0.136,0.013c0.499,0.051,0.996,0.082,1.486,0.082
			c0.508,0,1.008-0.035,1.502-0.089c0.576,0.701,1.146,1.367,1.684,1.979c2.357,2.689,5.602,6.045,9.764,8.105
			c2.496,1.236,5.103,1.865,7.58,1.865c1.699,0,3.338-0.295,4.836-0.895c1.486-0.592,2.854-1.48,4.178-2.369
			c0.072-0.045,0.146-0.092,0.214-0.139c0.026-0.02,0.056-0.037,0.079-0.055c0.345-0.23,0.691-0.461,1.041-0.688
			c0.035-0.023,0.072-0.047,0.107-0.072c0.035-0.021,0.067-0.045,0.104-0.066c1.321-0.852,2.694-1.629,4.183-2.039l0.38-0.076
			c0.035-0.008,0.064-0.028,0.084-0.061c0.017-0.031,0.021-0.068,0.011-0.104l-0.123-0.355c-0.391-1.498-0.403-3.074-0.328-4.641
			c0.002-0.041,0.006-0.084,0.008-0.125c0.002-0.043,0.006-0.084,0.009-0.127c0.021-0.42,0.049-0.838,0.075-1.254
			c0.002-0.031,0.004-0.061,0.008-0.088c0.005-0.084,0.01-0.172,0.016-0.256c0.104-1.594,0.193-3.229-0.037-4.813
			c-0.572-3.924-3.142-7.666-7.051-10.266c-3.869-2.572-8.396-3.703-11.902-4.402c-0.871-0.172-1.711-0.316-2.535-0.447
			c-0.391-0.891-0.881-1.758-1.469-2.582c1.871-0.309,3.664-0.639,5.326-0.971c4.476-0.893,9.778-2.143,15.036-4.26
			c2.474,1.056,4.925,2.32,7.245,3.865c6.34,4.217,10.796,10.021,12.586,16.264c0.023,0.09,0.057,0.176,0.08,0.266
			c0.171,0.623,0.307,1.252,0.422,1.883c0.01,0.049,0.018,0.098,0.024,0.146c0.01,0.045,0.018,0.088,0.024,0.135
			C174.252,118.8,174.293,118.986,174.319,119.175 M114.402,175.285c-0.035,0.029-0.068,0.059-0.104,0.088
			c-0.147,0.123-0.289,0.25-0.438,0.367c-2.529,1.998-5.515,3.465-8.4,4.885c-3.526,1.732-7.176,3.525-9.989,6.301l-0.39,0.445
			l-0.396-0.453c-2.81-2.768-6.457-4.561-9.984-6.293c-2.886-1.42-5.868-2.887-8.399-4.885c-0.156-0.121-0.303-0.256-0.455-0.383
			c-0.036-0.027-0.071-0.061-0.106-0.088c-0.038-0.033-0.074-0.063-0.113-0.098c-0.486-0.416-0.963-0.848-1.416-1.307
			c-0.065-0.066-0.125-0.139-0.189-0.203c-4.5-4.67-7.295-11.428-7.775-19.018c-0.178-2.791-0.049-5.553,0.277-8.23
			c0.007-0.063,0.019-0.125,0.025-0.188c0.007-0.056,0.014-0.108,0.021-0.164c0.075-0.592,0.161-1.181,0.255-1.765
			c0.021-0.123,0.04-0.248,0.062-0.371c0.8-4.766,2.142-9.188,3.405-12.907c0.643-1.896,1.38-3.957,2.212-6.084
			c1.408-0.31,2.825-0.802,4.21-1.485c1.092-0.541,2.117-1.177,3.085-1.859c-0.11,1.183-0.148,2.392-0.07,3.613
			c0.095,1.512,0.38,2.95,0.804,4.305c0.031,0.099,0.059,0.195,0.091,0.291c0.148,0.449,0.317,0.884,0.502,1.308
			c0.019,0.043,0.034,0.088,0.056,0.131c0.018,0.044,0.034,0.089,0.053,0.132c0.421,0.928,0.924,1.789,1.5,2.578
			c-0.321,0.854-0.615,1.684-0.878,2.456c-1.149,3.392-2.432,7.878-2.138,12.511c0.297,4.687,2.252,8.78,5.364,11.235
			c1.256,0.992,2.712,1.731,4.141,2.438c0.076,0.037,0.152,0.076,0.228,0.113c0.029,0.014,0.06,0.028,0.087,0.043
			c0.371,0.182,0.745,0.366,1.117,0.557c0.038,0.021,0.076,0.039,0.114,0.058l0.112,0.058c1.396,0.719,2.757,1.519,3.854,2.601
			l0.255,0.293c0.024,0.026,0.06,0.043,0.096,0.043c0.034,0,0.068-0.017,0.094-0.043l0.249-0.285
			c1.101-1.086,2.46-1.885,3.854-2.604c0.037-0.021,0.074-0.037,0.111-0.059c0.039-0.018,0.077-0.035,0.115-0.057
			c0.374-0.189,0.75-0.377,1.124-0.561c0.023-0.014,0.052-0.025,0.077-0.039c0.074-0.037,0.151-0.076,0.229-0.113
			c1.432-0.705,2.891-1.447,4.149-2.441c3.111-2.455,5.066-6.551,5.363-11.234c0.294-4.633-0.986-9.117-2.139-12.51
			c-0.284-0.842-0.577-1.645-0.877-2.424c0.575-0.783,1.079-1.639,1.501-2.561c1.201,1.467,2.385,2.852,3.501,4.127
			c3.012,3.432,6.744,7.398,11.209,10.893c0.322,2.67,0.449,5.428,0.273,8.207c-0.48,7.602-3.281,14.361-7.791,19.031
			c-0.064,0.066-0.125,0.137-0.189,0.203c-0.455,0.459-0.931,0.891-1.418,1.307C114.477,175.221,114.44,175.251,114.402,175.285
			 M34.642,151.664c-2.995-1.193-5.758-3.043-8.429-4.834c-3.267-2.188-6.644-4.449-10.452-5.502l-0.582-0.113l0.195-0.57
			c0.99-3.814,0.721-7.871,0.459-11.793c-0.214-3.209-0.438-6.525,0.026-9.717c0.028-0.195,0.07-0.391,0.104-0.586
			c0.008-0.045,0.016-0.09,0.022-0.135c0.01-0.051,0.019-0.1,0.026-0.146c0.117-0.631,0.252-1.26,0.424-1.883
			c0.024-0.088,0.056-0.176,0.081-0.264c1.795-6.232,6.247-12.033,12.579-16.242c2.329-1.549,4.786-2.818,7.268-3.875
			c0.06-0.025,0.117-0.049,0.178-0.074c0.051-0.021,0.101-0.041,0.15-0.063c0.553-0.229,1.104-0.45,1.655-0.661
			c0.118-0.045,0.235-0.09,0.354-0.134c4.523-1.689,9.024-2.737,12.881-3.506c1.969-0.392,4.117-0.788,6.385-1.133
			c0.972,1.068,2.096,2.055,3.381,2.91c1.016,0.675,2.078,1.246,3.154,1.742c-1.08,0.495-2.146,1.067-3.165,1.746
			c-1.261,0.84-2.365,1.808-3.325,2.851c-0.069,0.073-0.142,0.147-0.209,0.223c-0.313,0.354-0.604,0.718-0.879,1.089
			c-0.029,0.036-0.061,0.073-0.087,0.112c-0.028,0.039-0.061,0.074-0.087,0.112c-0.594,0.828-1.086,1.693-1.482,2.587
			c-0.898,0.147-1.765,0.309-2.565,0.469c-3.512,0.699-8.036,1.832-11.902,4.401c-3.91,2.601-6.479,6.343-7.051,10.267
			c-0.23,1.582-0.145,3.213-0.038,4.806c0.005,0.084,0.01,0.17,0.015,0.254c0.003,0.031,0.004,0.063,0.007,0.097
			c0.027,0.413,0.056,0.829,0.076,1.245c0.003,0.043,0.005,0.084,0.007,0.127c0.003,0.044,0.006,0.085,0.008,0.125
			c0.076,1.568,0.064,3.146-0.322,4.64l-0.126,0.367c-0.013,0.034-0.01,0.071,0.01,0.104c0.018,0.031,0.049,0.055,0.085,0.063
			l0.371,0.07c1.49,0.412,2.862,1.188,4.181,2.037c0.035,0.021,0.07,0.045,0.105,0.064c0.035,0.025,0.069,0.047,0.104,0.072
			c0.354,0.229,0.702,0.461,1.049,0.693c0.024,0.016,0.05,0.031,0.072,0.049c0.07,0.047,0.144,0.094,0.212,0.141
			c1.327,0.885,2.699,1.779,4.188,2.373c1.499,0.598,3.137,0.895,4.836,0.895c2.477,0,5.085-0.629,7.58-1.865
			c4.161-2.063,7.402-5.416,9.763-8.105c0.583-0.664,1.131-1.316,1.654-1.965c0.508,0.057,1.02,0.094,1.541,0.094
			c0.472,0,0.951-0.029,1.431-0.076c-0.668,1.773-1.277,3.49-1.821,5.094c-1.466,4.32-3.035,9.539-3.83,15.152
			c-2.149,1.615-4.473,3.102-6.971,4.342c-6.819,3.383-14.077,4.338-20.377,2.768c-0.09-0.021-0.181-0.039-0.271-0.063
			c-0.624-0.162-1.235-0.359-1.841-0.574c-0.047-0.02-0.093-0.033-0.14-0.051c-0.044-0.018-0.087-0.031-0.13-0.051
			C35.001,151.792,34.818,151.734,34.642,151.664 M15.885,71.021c-0.464-3.191-0.243-6.509-0.028-9.718
			c0.264-3.921,0.533-7.978-0.462-11.803l-0.19-0.562l0.591-0.116c3.802-1.049,7.179-3.311,10.442-5.499
			c2.671-1.79,5.435-3.64,8.43-4.834c0.183-0.072,0.373-0.134,0.559-0.202c0.043-0.016,0.086-0.031,0.129-0.047
			c0.047-0.017,0.094-0.034,0.142-0.051c0.604-0.213,1.216-0.41,1.841-0.573c0.089-0.023,0.181-0.04,0.27-0.062
			c6.295-1.563,13.543-0.605,20.355,2.771c2.506,1.243,4.835,2.736,6.992,4.357c0.048,0.036,0.095,0.074,0.144,0.11
			c0.046,0.035,0.091,0.07,0.137,0.105c0.477,0.362,0.941,0.73,1.399,1.104c0.098,0.078,0.196,0.157,0.292,0.237
			c3.727,3.074,6.885,6.448,9.477,9.403c1.323,1.507,2.74,3.18,4.173,4.969c-0.438,1.374-0.729,2.839-0.826,4.377
			c-0.077,1.219-0.041,2.423,0.066,3.603c-0.97-0.688-1.999-1.324-3.095-1.868c-1.357-0.673-2.746-1.146-4.129-1.454
			c-0.102-0.022-0.199-0.049-0.298-0.069c-0.463-0.095-0.923-0.164-1.381-0.218c-0.05-0.006-0.098-0.014-0.145-0.019
			c-0.046-0.004-0.092-0.014-0.138-0.019c-1.016-0.1-2.014-0.095-2.984,0.009c-0.579-0.703-1.148-1.374-1.688-1.987
			c-2.36-2.691-5.604-6.043-9.766-8.108c-4.207-2.086-8.729-2.441-12.416-0.972c-1.484,0.592-2.854,1.482-4.179,2.368
			c-0.07,0.047-0.141,0.094-0.211,0.141c-0.027,0.018-0.055,0.036-0.082,0.054c-0.344,0.23-0.691,0.461-1.04,0.689
			c-0.036,0.022-0.071,0.047-0.107,0.07c-0.033,0.021-0.067,0.045-0.104,0.067c-1.321,0.851-2.694,1.629-4.18,2.039l-0.38,0.075
			c-0.036,0.006-0.067,0.029-0.087,0.06c-0.018,0.031-0.021,0.07-0.01,0.104l0.123,0.356c0.391,1.497,0.403,3.074,0.327,4.641
			c-0.002,0.042-0.005,0.083-0.007,0.125l-0.007,0.127c-0.023,0.42-0.049,0.839-0.077,1.255c-0.002,0.028-0.003,0.058-0.005,0.087
			c-0.006,0.084-0.012,0.17-0.018,0.254c-0.104,1.592-0.192,3.227,0.037,4.813c0.571,3.925,3.143,7.666,7.051,10.267
			c3.866,2.571,8.393,3.703,11.901,4.402c0.87,0.173,1.714,0.322,2.539,0.454c0.39,0.887,0.877,1.75,1.462,2.572
			c-1.872,0.309-3.658,0.643-5.321,0.974c-4.478,0.892-9.779,2.142-15.038,4.261c-2.475-1.056-4.924-2.324-7.243-3.868
			c-6.341-4.214-10.796-10.021-12.586-16.262c-0.025-0.089-0.058-0.177-0.081-0.267c-0.17-0.622-0.307-1.251-0.421-1.881
			c-0.011-0.049-0.02-0.097-0.026-0.146c-0.008-0.045-0.018-0.091-0.024-0.135C15.954,71.396,15.913,71.209,15.885,71.021
			 M75.802,14.912c0.035-0.029,0.07-0.059,0.104-0.089c0.147-0.122,0.288-0.25,0.438-0.368c2.531-1.997,5.515-3.464,8.401-4.882
			c3.525-1.733,7.175-3.526,9.989-6.3l0.391-0.448l0.396,0.454c2.812,2.769,6.457,4.561,9.985,6.294
			c2.885,1.419,5.869,2.887,8.398,4.882c0.154,0.123,0.305,0.257,0.456,0.384c0.034,0.029,0.069,0.06,0.104,0.089
			c0.039,0.032,0.076,0.063,0.114,0.096c0.485,0.417,0.963,0.848,1.417,1.308c0.063,0.066,0.125,0.137,0.188,0.203
			c4.5,4.67,7.296,11.428,7.775,19.015c0.176,2.791,0.049,5.554-0.277,8.232c-4.474,3.497-8.213,7.473-11.228,10.908
			c-1.229,1.4-2.387,2.778-3.482,4.14c-0.42-0.928-0.923-1.789-1.499-2.579c0.321-0.854,0.615-1.683,0.877-2.456
			c1.151-3.39,2.434-7.873,2.141-12.511c-0.299-4.686-2.254-8.781-5.365-11.237c-1.256-0.991-2.711-1.731-4.142-2.436
			c-0.075-0.038-0.151-0.076-0.228-0.114c-0.03-0.014-0.059-0.028-0.087-0.043c-0.371-0.182-0.744-0.368-1.117-0.557
			c-0.038-0.02-0.076-0.038-0.114-0.058c-0.037-0.02-0.074-0.037-0.11-0.057c-1.397-0.718-2.76-1.517-3.857-2.599l-0.254-0.292
			c-0.024-0.028-0.059-0.043-0.094-0.043c-0.036,0-0.07,0.015-0.097,0.043l-0.247,0.285c-1.102,1.085-2.461,1.885-3.854,2.602
			c-0.038,0.02-0.075,0.037-0.112,0.058c-0.038,0.019-0.076,0.036-0.113,0.057c-0.375,0.189-0.75,0.378-1.123,0.561
			c-0.026,0.014-0.054,0.027-0.078,0.039c-0.076,0.037-0.153,0.076-0.229,0.114c-1.431,0.705-2.89,1.445-4.146,2.438
			c-3.114,2.457-5.069,6.553-5.366,11.238c-0.293,4.637,0.989,9.12,2.138,12.51c0.285,0.84,0.578,1.644,0.878,2.423
			c-0.575,0.783-1.079,1.639-1.501,2.559c-1.201-1.465-2.385-2.852-3.503-4.126c-3.01-3.431-6.743-7.4-11.208-10.894
			c-0.322-2.67-0.45-5.425-0.272-8.206c0.479-7.599,3.281-14.36,7.792-19.031c0.063-0.067,0.125-0.138,0.188-0.204
			c0.454-0.459,0.931-0.889,1.417-1.305C75.725,14.976,75.764,14.943,75.802,14.912 M155.561,38.533
			c2.996,1.194,5.759,3.044,8.431,4.835c3.269,2.188,6.644,4.449,10.45,5.501l0.583,0.113l-0.193,0.571
			c-0.991,3.815-0.723,7.871-0.459,11.792c0.215,3.209,0.437,6.526-0.028,9.719c-0.029,0.195-0.07,0.389-0.104,0.585
			c-0.008,0.044-0.016,0.089-0.021,0.135c-0.01,0.049-0.02,0.098-0.027,0.146c-0.117,0.631-0.252,1.259-0.424,1.882
			c-0.022,0.088-0.056,0.176-0.08,0.264c-1.795,6.232-6.248,12.032-12.58,16.241c-2.328,1.549-4.785,2.819-7.269,3.877
			c-0.06,0.025-0.116,0.048-0.175,0.073c-0.053,0.021-0.104,0.041-0.152,0.062c-0.552,0.231-1.104,0.451-1.656,0.661
			c-0.117,0.045-0.232,0.09-0.352,0.134c-4.525,1.691-9.027,2.738-12.881,3.505c-1.971,0.393-4.117,0.789-6.386,1.135
			c-0.972-1.068-2.097-2.055-3.384-2.91c-1.015-0.676-2.076-1.246-3.152-1.742c1.08-0.496,2.146-1.067,3.165-1.746
			c1.263-0.839,2.364-1.805,3.325-2.849c0.068-0.075,0.143-0.148,0.209-0.223c0.313-0.354,0.604-0.717,0.878-1.087
			c0.028-0.038,0.062-0.076,0.088-0.115c0.028-0.038,0.062-0.074,0.087-0.111c0.594-0.828,1.087-1.694,1.482-2.586
			c0.899-0.15,1.764-0.31,2.566-0.47c3.512-0.699,8.036-1.831,11.9-4.402c3.91-2.601,6.48-6.342,7.053-10.267
			c0.229-1.582,0.143-3.213,0.036-4.804c-0.006-0.084-0.011-0.17-0.017-0.254c-0.002-0.032-0.004-0.064-0.006-0.096
			c-0.027-0.413-0.055-0.829-0.076-1.246c-0.004-0.043-0.006-0.085-0.008-0.128l-0.007-0.125c-0.075-1.568-0.063-3.146,0.322-4.639
			l0.126-0.366c0.014-0.034,0.01-0.073-0.01-0.104c-0.018-0.03-0.049-0.054-0.085-0.06l-0.371-0.072
			c-1.489-0.412-2.861-1.188-4.181-2.037c-0.037-0.022-0.07-0.046-0.105-0.068l-0.105-0.07c-0.354-0.229-0.701-0.461-1.045-0.693
			c-0.025-0.016-0.051-0.031-0.074-0.049c-0.07-0.047-0.143-0.094-0.213-0.141c-1.328-0.888-2.697-1.78-4.188-2.373
			c-3.685-1.469-8.21-1.114-12.416,0.972c-4.157,2.063-7.399,5.415-9.765,8.107c-0.584,0.666-1.133,1.321-1.658,1.971
			c-0.967-0.106-1.958-0.116-2.967-0.02c-0.049,0.005-0.098,0.014-0.146,0.019c-0.046,0.004-0.09,0.012-0.135,0.017
			c-0.454,0.053-0.907,0.117-1.365,0.209c-0.1,0.021-0.196,0.048-0.298,0.068c-1.407,0.309-2.822,0.788-4.203,1.473
			c-1.095,0.542-2.118,1.176-3.087,1.86c0.111-1.184,0.148-2.393,0.07-3.615c-0.095-1.51-0.381-2.95-0.805-4.303
			c1.286-1.641,2.66-3.304,4.149-5.003c2.599-2.959,5.762-6.339,9.496-9.417c0.098-0.08,0.194-0.159,0.292-0.238
			c0.458-0.373,0.926-0.741,1.398-1.103c0.047-0.034,0.092-0.07,0.138-0.105c0.049-0.037,0.098-0.074,0.146-0.11
			c2.148-1.615,4.473-3.103,6.971-4.342c4.69-2.325,9.588-3.508,14.24-3.508c2.114,0,4.17,0.269,6.142,0.761
			c0.089,0.022,0.183,0.04,0.271,0.063c0.625,0.164,1.233,0.359,1.839,0.574c0.047,0.016,0.092,0.029,0.139,0.047
			c0.043,0.015,0.087,0.028,0.13,0.044C155.204,38.416,155.387,38.463,155.561,38.533 M156.216,123.826
			c-0.006,0.084-0.011,0.17-0.018,0.252c-0.001,0.016-0.002,0.029-0.003,0.043c-0.027,0.428-0.056,0.859-0.079,1.293
			c-0.002,0.043-0.005,0.084-0.007,0.127l-0.009,0.125c-0.073,1.576-0.058,3.164,0.34,4.691l0.078,0.229l-0.248,0.051
			c-1.514,0.418-2.898,1.199-4.229,2.053c-0.034,0.021-0.069,0.047-0.104,0.068s-0.07,0.049-0.105,0.07
			c-0.359,0.232-0.719,0.471-1.07,0.709c-0.016,0.01-0.029,0.02-0.043,0.025c-0.07,0.047-0.144,0.096-0.211,0.143
			c-1.326,0.887-2.695,1.779-4.172,2.369c-3.615,1.441-8.07,1.092-12.213-0.967c-4.122-2.045-7.345-5.375-9.688-8.047
			c-0.504-0.576-1.037-1.201-1.578-1.854c1.059-0.139,2.082-0.383,3.044-0.768c1.598-0.635,3.061-1.613,4.475-2.563
			c0.136-0.09,0.271-0.18,0.405-0.271c0.043-0.029,0.087-0.059,0.13-0.086c0.045-0.029,0.089-0.061,0.133-0.088
			c0.425-0.281,0.854-0.563,1.29-0.826c0.094-0.059,0.188-0.109,0.282-0.166c1.019-0.602,2.069-1.121,3.188-1.428l0.381-0.076
			c0.037-0.006,0.066-0.027,0.084-0.061c0.021-0.029,0.022-0.068,0.011-0.104l-0.123-0.355c-0.291-1.119-0.367-2.285-0.358-3.455
			c0.002-0.111,0-0.223,0.002-0.334c0.012-0.51,0.037-1.021,0.066-1.529c0.004-0.051,0.008-0.1,0.011-0.148
			c0.004-0.057,0.009-0.109,0.011-0.164c0.012-0.172,0.021-0.346,0.034-0.516c0.112-1.697,0.229-3.455-0.018-5.152
			c-0.146-1.014-0.433-2.012-0.833-2.979c0.77,0.125,1.55,0.26,2.357,0.422c3.486,0.691,7.979,1.814,11.813,4.363
			c3.854,2.563,6.383,6.24,6.941,10.096C156.413,120.596,156.321,122.232,156.216,123.826 M99.243,163.154
			c-0.036,0.02-0.073,0.037-0.11,0.057c-1.402,0.723-2.771,1.531-3.894,2.639l-0.159,0.186l-0.167-0.188
			c-1.12-1.105-2.49-1.912-3.895-2.639c-0.038-0.021-0.075-0.037-0.113-0.059c-0.037-0.018-0.074-0.035-0.112-0.057
			c-0.385-0.195-0.77-0.387-1.151-0.574c-0.015-0.008-0.03-0.016-0.045-0.021c-0.076-0.037-0.152-0.076-0.227-0.113
			c-1.433-0.701-2.893-1.441-4.141-2.426c-3.057-2.414-4.978-6.441-5.269-11.061c-0.291-4.588,0.98-9.045,2.125-12.414
			c0.244-0.721,0.519-1.492,0.813-2.285c0.647,0.848,1.376,1.604,2.189,2.244c1.347,1.064,2.927,1.844,4.455,2.594
			c0.145,0.07,0.29,0.146,0.436,0.219c0.049,0.021,0.101,0.051,0.148,0.074c0.046,0.021,0.091,0.045,0.137,0.066
			c0.457,0.229,0.908,0.465,1.356,0.711c0.098,0.057,0.193,0.105,0.291,0.16c1.024,0.58,2.004,1.229,2.828,2.039l0.256,0.291
			c0.022,0.027,0.059,0.043,0.095,0.043s0.07-0.016,0.093-0.043l0.249-0.285c0.823-0.811,1.793-1.453,2.813-2.029
			c0.095-0.055,0.191-0.105,0.288-0.158c0.449-0.246,0.9-0.484,1.357-0.715c0.046-0.021,0.092-0.049,0.138-0.068
			c0.051-0.023,0.1-0.049,0.148-0.072c0.153-0.076,0.308-0.156,0.462-0.23c1.528-0.75,3.107-1.527,4.455-2.592
			c0.802-0.633,1.523-1.379,2.164-2.211c0.278,0.727,0.55,1.473,0.813,2.252c1.145,3.371,2.416,7.824,2.125,12.414
			c-0.291,4.615-2.212,8.645-5.269,11.059c-1.251,0.984-2.714,1.725-4.147,2.432c-0.074,0.037-0.15,0.074-0.227,0.111
			c-0.013,0.006-0.025,0.014-0.038,0.02c-0.384,0.189-0.771,0.382-1.158,0.578C99.319,163.117,99.281,163.134,99.243,163.154
			 M39.422,133.498c-0.357-0.24-0.717-0.479-1.081-0.717c-0.035-0.021-0.07-0.047-0.106-0.068c-0.035-0.023-0.068-0.047-0.104-0.068
			c-1.326-0.854-2.711-1.633-4.231-2.053l-0.24-0.047l0.083-0.24c0.396-1.521,0.41-3.113,0.336-4.688
			c-0.003-0.043-0.006-0.084-0.008-0.125c-0.002-0.043-0.005-0.086-0.007-0.131c-0.021-0.428-0.05-0.854-0.079-1.279
			c-0.001-0.02-0.002-0.035-0.003-0.055c-0.006-0.084-0.01-0.168-0.016-0.252c-0.105-1.59-0.196-3.225,0.033-4.797
			c0.561-3.854,3.092-7.535,6.94-10.094c3.83-2.547,8.325-3.672,11.813-4.365c0.748-0.148,1.554-0.299,2.387-0.438
			c-0.41,0.982-0.702,1.994-0.851,3.021c-0.247,1.695-0.131,3.453-0.018,5.15c0.011,0.162,0.021,0.324,0.032,0.486
			c0.003,0.055,0.006,0.107,0.01,0.16c0.003,0.055,0.007,0.104,0.01,0.154c0.031,0.506,0.059,1.018,0.069,1.525
			c0.002,0.109,0.001,0.223,0.002,0.334c0.012,1.18-0.063,2.354-0.354,3.477l-0.126,0.367c-0.013,0.033-0.01,0.07,0.01,0.102
			c0.018,0.033,0.049,0.057,0.085,0.063l0.371,0.072c1.115,0.311,2.162,0.82,3.172,1.416c0.094,0.057,0.188,0.107,0.283,0.166
			c0.438,0.266,0.868,0.545,1.294,0.822c0.043,0.031,0.087,0.061,0.131,0.088c0.043,0.029,0.086,0.061,0.13,0.088
			c0.144,0.098,0.288,0.191,0.431,0.287c1.414,0.947,2.877,1.93,4.473,2.563c0.949,0.38,1.962,0.623,3.005,0.761
			c-0.493,0.606-1.006,1.217-1.551,1.84c-2.347,2.673-5.565,6.002-9.688,8.048c-4.143,2.055-8.594,2.405-12.211,0.965
			c-1.479-0.59-2.852-1.485-4.179-2.375c-0.07-0.047-0.143-0.095-0.211-0.14L39.422,133.498z M33.989,66.372
			c0.007-0.084,0.012-0.169,0.017-0.253c0.001-0.014,0.002-0.028,0.003-0.043c0.029-0.428,0.056-0.859,0.079-1.292l0.008-0.128
			c0.002-0.041,0.005-0.083,0.006-0.125c0.076-1.575,0.059-3.164-0.338-4.689l-0.08-0.232l0.249-0.048
			c1.516-0.419,2.901-1.201,4.23-2.055c0.033-0.022,0.067-0.045,0.104-0.068s0.071-0.046,0.106-0.069
			c0.359-0.234,0.719-0.473,1.071-0.711c0.016-0.01,0.029-0.019,0.044-0.028c0.069-0.047,0.142-0.093,0.21-0.14
			c1.325-0.887,2.695-1.782,4.174-2.37c3.616-1.441,8.067-1.091,12.212,0.966c4.121,2.044,7.342,5.374,9.687,8.047
			c0.503,0.572,1.035,1.196,1.573,1.849c-1.056,0.136-2.077,0.388-3.039,0.771c-1.594,0.636-3.057,1.614-4.471,2.563
			c-0.136,0.09-0.271,0.18-0.406,0.271c-0.044,0.028-0.088,0.059-0.132,0.088c-0.044,0.028-0.087,0.058-0.131,0.087
			c-0.425,0.281-0.854,0.558-1.287,0.823c-0.097,0.058-0.192,0.111-0.288,0.169c-1.018,0.6-2.069,1.119-3.188,1.429l-0.381,0.074
			c-0.035,0.007-0.064,0.028-0.084,0.06c-0.018,0.032-0.021,0.07-0.01,0.104l0.123,0.356c0.291,1.12,0.369,2.284,0.358,3.455
			c-0.001,0.112,0,0.223-0.003,0.335c-0.011,0.509-0.034,1.02-0.066,1.527c-0.003,0.051-0.006,0.101-0.009,0.151
			c-0.005,0.056-0.009,0.109-0.013,0.164c-0.01,0.171-0.021,0.344-0.033,0.514c-0.112,1.698-0.229,3.456,0.019,5.153
			c0.146,1.011,0.43,2.008,0.83,2.977c-0.771-0.124-1.547-0.256-2.356-0.417c-3.485-0.695-7.98-1.818-11.812-4.365
			c-3.852-2.561-6.381-6.24-6.942-10.093C33.793,69.601,33.885,67.964,33.989,66.372 M90.962,27.042
			c0.037-0.02,0.075-0.038,0.111-0.058c1.4-0.722,2.771-1.532,3.895-2.638l0.159-0.185l0.167,0.191
			c1.12,1.104,2.488,1.912,3.893,2.635c0.037,0.021,0.075,0.037,0.113,0.058c0.038,0.019,0.076,0.038,0.114,0.057
			c0.383,0.194,0.768,0.387,1.148,0.575c0.017,0.007,0.031,0.015,0.046,0.022c0.075,0.037,0.152,0.075,0.229,0.112
			c1.431,0.705,2.89,1.443,4.138,2.427c3.057,2.413,4.978,6.444,5.271,11.06c0.291,4.593-0.983,9.047-2.128,12.414
			c-0.243,0.722-0.52,1.493-0.813,2.285c-0.646-0.847-1.374-1.604-2.188-2.245c-1.348-1.064-2.928-1.842-4.453-2.592
			c-0.146-0.07-0.292-0.146-0.438-0.218c-0.049-0.024-0.099-0.049-0.148-0.074c-0.045-0.022-0.091-0.046-0.137-0.068
			c-0.457-0.228-0.908-0.466-1.355-0.712c-0.099-0.054-0.194-0.105-0.291-0.159c-1.025-0.58-2.003-1.226-2.828-2.038l-0.255-0.292
			c-0.051-0.055-0.143-0.055-0.19,0l-0.248,0.286c-0.822,0.81-1.793,1.453-2.81,2.03c-0.098,0.055-0.194,0.106-0.29,0.159
			c-0.449,0.246-0.9,0.486-1.357,0.714l-0.138,0.068c-0.049,0.025-0.098,0.05-0.147,0.074c-0.153,0.076-0.309,0.155-0.463,0.23
			c-1.525,0.75-3.105,1.527-4.455,2.592c-0.803,0.633-1.522,1.379-2.164,2.212c-0.276-0.728-0.55-1.474-0.813-2.253
			c-1.144-3.367-2.415-7.821-2.125-12.413c0.292-4.615,2.213-8.646,5.27-11.06c1.25-0.985,2.713-1.725,4.146-2.431
			c0.075-0.037,0.149-0.076,0.227-0.113c0.014-0.006,0.026-0.013,0.038-0.019c0.385-0.189,0.772-0.383,1.158-0.578
			C90.885,27.079,90.924,27.061,90.962,27.042 M150.784,56.7c0.355,0.239,0.718,0.479,1.079,0.715
			c0.036,0.023,0.071,0.047,0.106,0.069c0.035,0.023,0.069,0.046,0.104,0.069c1.326,0.852,2.711,1.633,4.232,2.053l0.238,0.046
			l-0.082,0.24c-0.396,1.521-0.412,3.112-0.336,4.689c0.002,0.041,0.004,0.083,0.008,0.125c0.002,0.042,0.004,0.086,0.006,0.128
			c0.022,0.43,0.051,0.857,0.08,1.283c0,0.018,0.002,0.034,0.002,0.052c0.006,0.084,0.011,0.168,0.017,0.252
			c0.104,1.592,0.194,3.226-0.032,4.799c-0.563,3.853-3.092,7.532-6.941,10.093c-3.83,2.547-8.324,3.671-11.813,4.365
			c-0.746,0.148-1.555,0.297-2.387,0.438c0.408-0.982,0.701-1.993,0.853-3.017c0.247-1.699,0.13-3.455,0.017-5.154
			c-0.012-0.161-0.021-0.324-0.032-0.485c-0.005-0.056-0.009-0.109-0.011-0.163c-0.004-0.052-0.006-0.103-0.011-0.152
			c-0.03-0.508-0.059-1.017-0.069-1.526c-0.002-0.111,0-0.223-0.002-0.334c-0.01-1.18,0.065-2.353,0.357-3.476l0.126-0.367
			c0.013-0.034,0.009-0.072-0.012-0.103c-0.019-0.031-0.05-0.055-0.085-0.062l-0.371-0.071c-1.113-0.308-2.161-0.823-3.172-1.417
			c-0.096-0.057-0.192-0.111-0.289-0.169c-0.434-0.264-0.86-0.54-1.283-0.819c-0.046-0.03-0.091-0.061-0.136-0.089l-0.132-0.089
			c-0.144-0.096-0.286-0.19-0.428-0.285c-1.414-0.948-2.877-1.929-4.473-2.564c-0.95-0.378-1.957-0.63-2.999-0.769
			c0.49-0.604,1.002-1.212,1.545-1.831c2.347-2.674,5.565-6.004,9.687-8.046c2.461-1.222,5.031-1.842,7.469-1.842
			c1.668,0,3.275,0.29,4.745,0.876c1.479,0.59,2.853,1.486,4.179,2.374c0.068,0.047,0.143,0.094,0.212,0.141
			C150.76,56.684,150.772,56.691,150.784,56.7 M133.67,103.941c0.477,1.039,0.818,2.111,0.979,3.205
			c0.223,1.504,0.132,3.068,0.031,4.592c-0.004,0.053-0.008,0.104-0.011,0.156l-0.006,0.096c-0.001,0.021-0.002,0.039-0.006,0.061
			c-0.031,0.494-0.063,0.992-0.088,1.492c-0.005,0.105-0.007,0.213-0.011,0.318c-0.049,1.365-0.006,2.736,0.336,4.055l0.074,0.215
			l-0.23,0.045c-1.316,0.363-2.529,1.016-3.692,1.748c-0.091,0.057-0.184,0.111-0.272,0.17c-0.422,0.268-0.836,0.547-1.248,0.822
			c-0.008,0.006-0.018,0.012-0.023,0.018c-0.033,0.023-0.068,0.047-0.104,0.068c-0.045,0.029-0.088,0.059-0.133,0.088
			c-1.259,0.844-2.562,1.695-3.965,2.254c-1.046,0.418-2.171,0.656-3.332,0.76c-0.102,0.008-0.199,0.02-0.299,0.025
			c-0.84,0.055-1.697,0.029-2.568-0.074c-0.045-0.006-0.092-0.012-0.14-0.02c-0.048-0.006-0.098-0.012-0.146-0.018
			c-0.467-0.066-0.935-0.154-1.402-0.266c-0.102-0.021-0.198-0.045-0.299-0.066c-1.145-0.293-2.289-0.703-3.409-1.26
			c-1.246-0.617-2.396-1.365-3.472-2.174c-0.048-0.035-0.097-0.07-0.146-0.107c-0.045-0.035-0.091-0.066-0.137-0.102
			c-0.188-0.146-0.378-0.295-0.563-0.443c-0.101-0.082-0.198-0.166-0.297-0.248c-1.796-1.502-3.331-3.131-4.591-4.566
			c-0.79-0.9-1.646-1.914-2.502-3.012c-0.049-0.063-0.096-0.119-0.144-0.182c-0.05-0.064-0.099-0.127-0.147-0.191
			c-0.62-0.811-1.236-1.666-1.824-2.564c-0.125-0.193-0.243-0.396-0.366-0.59c-0.752-1.203-1.452-2.467-2.031-3.795
			c-0.468-1.074-0.939-2.23-1.28-3.41c-0.013-0.037-0.024-0.074-0.035-0.109c-0.036-0.129-0.064-0.258-0.098-0.387
			c-0.034-0.141-0.07-0.279-0.103-0.42c0,0,0-0.002-0.001-0.004c-0.086-0.391-0.154-0.783-0.197-1.178
			c-0.013-0.117-0.016-0.234-0.022-0.354c-0.002-0.021-0.003-0.039-0.004-0.059c-0.008-0.102-0.02-0.201-0.021-0.305
			c-0.004-0.117,0-0.229,0.001-0.348c0.001-0.078,0.007-0.158,0.011-0.236v-0.002c0.004-0.082,0.005-0.164,0.013-0.248
			c0.001-0.018,0.001-0.037,0.003-0.055c0.004-0.047,0.001-0.096,0.006-0.146c0.001,0,0-0.004,0.001-0.004
			c0.01-0.102,0.044-0.191,0.063-0.289c0.017-0.084,0.031-0.166,0.055-0.246c0.012-0.045,0.016-0.092,0.028-0.137
			c0.005-0.016,0.005-0.033,0.012-0.051c0.015-0.045,0.037-0.086,0.055-0.131c0.004-0.011,0.01-0.021,0.014-0.031
			c0.049,0.039,0.088,0.088,0.141,0.127c0.083,0.063,0.175,0.109,0.261,0.166c0.107,0.074,0.219,0.146,0.332,0.213
			c0.005,0.004,0.01,0.008,0.015,0.01c0.019,0.013,0.034,0.023,0.051,0.033c0.057,0.031,0.105,0.072,0.16,0.104
			c0.008,0.005,0.017,0.009,0.023,0.015c0.031,0.016,0.063,0.029,0.095,0.047c0.021,0.01,0.04,0.019,0.062,0.027
			c0.084,0.045,0.173,0.086,0.259,0.129c0.076,0.037,0.149,0.074,0.227,0.111c0.02,0.008,0.036,0.02,0.055,0.023
			c0.101,0.045,0.198,0.092,0.302,0.135c0.131,0.059,0.265,0.104,0.396,0.152c0.516,0.193,1.043,0.357,1.585,0.492
			c0.074,0.018,0.15,0.033,0.226,0.051c0.07,0.02,0.143,0.033,0.214,0.049c0.604,0.137,1.214,0.242,1.819,0.33
			c0.077,0.014,0.155,0.023,0.233,0.035c0.077,0.01,0.153,0.021,0.229,0.033c0.375,0.049,0.747,0.096,1.108,0.137
			c0.02,0.002,0.035,0.002,0.055,0.004c0.357,0.041,0.719,0.063,1.076,0.088c0.732,0.055,1.463,0.086,2.188,0.086
			c1.331,0,2.646-0.076,3.915-0.207c0.176-0.018,0.346-0.041,0.521-0.059c0.903-0.102,1.78-0.225,2.623-0.361
			c0.071-0.012,0.144-0.021,0.212-0.033c0.072-0.014,0.146-0.021,0.22-0.035c0.834-0.143,1.634-0.289,2.383-0.438
			c2.229-0.445,4.868-1.066,7.489-2.119c1.229,0.523,2.448,1.146,3.604,1.914c1.069,0.711,2.021,1.521,2.858,2.395
			c0.068,0.072,0.138,0.146,0.205,0.219c0.325,0.352,0.632,0.713,0.919,1.086c0.027,0.037,0.059,0.074,0.086,0.111
			c0.027,0.039,0.059,0.076,0.088,0.113c0.52,0.703,0.963,1.434,1.329,2.188C133.587,103.764,133.629,103.854,133.67,103.941
			 M109.446,124.871c-0.081,1.279-0.309,2.504-0.642,3.666c-0.028,0.098-0.059,0.193-0.089,0.291
			c-0.142,0.457-0.3,0.902-0.479,1.336c-0.019,0.045-0.038,0.092-0.057,0.137c-0.018,0.041-0.035,0.084-0.053,0.127
			c-0.348,0.797-0.755,1.545-1.224,2.236c-0.056,0.084-0.111,0.166-0.17,0.246c-0.664,0.936-1.423,1.775-2.293,2.461
			c-1.193,0.943-2.594,1.648-3.963,2.32c-0.046,0.021-0.093,0.047-0.139,0.07c-0.029,0.014-0.06,0.027-0.087,0.043
			c-0.021,0.01-0.037,0.018-0.057,0.025c-0.443,0.219-0.891,0.439-1.335,0.67c-0.097,0.051-0.188,0.104-0.285,0.158
			c-1.202,0.639-2.368,1.354-3.34,2.313l-0.146,0.17l-0.154-0.178c-0.973-0.959-2.146-1.676-3.358-2.316
			c-0.097-0.051-0.189-0.107-0.286-0.158c-0.445-0.23-0.896-0.451-1.342-0.672c-0.008-0.002-0.015-0.006-0.021-0.01
			c-0.038-0.021-0.076-0.037-0.113-0.059c-0.049-0.021-0.099-0.049-0.146-0.074c-1.358-0.668-2.744-1.367-3.931-2.305
			c-0.883-0.697-1.651-1.553-2.321-2.506c-0.06-0.08-0.115-0.162-0.171-0.246c-0.47-0.699-0.875-1.455-1.222-2.264
			c-0.018-0.043-0.036-0.086-0.054-0.129c-0.019-0.045-0.038-0.09-0.056-0.135c-0.179-0.438-0.335-0.887-0.477-1.348
			c-0.028-0.098-0.061-0.193-0.088-0.293c-0.32-1.137-0.538-2.332-0.617-3.582c-0.088-1.389-0.014-2.76,0.147-4.094
			c0.008-0.061,0.014-0.121,0.021-0.181c0.008-0.058,0.014-0.112,0.021-0.168c0.031-0.239,0.063-0.476,0.103-0.71
			c0.021-0.129,0.045-0.254,0.067-0.383c0.402-2.309,1.046-4.448,1.66-6.258c0.384-1.137,0.833-2.385,1.354-3.672
			c0.029-0.072,0.057-0.145,0.085-0.217c0.031-0.072,0.062-0.146,0.092-0.225c0.393-0.941,0.825-1.904,1.312-2.861
			c0.104-0.207,0.22-0.41,0.328-0.611c0.665-1.252,1.409-2.488,2.271-3.654c0.695-0.939,1.457-1.928,2.308-2.813
			c0.027-0.028,0.056-0.062,0.086-0.092c0.092-0.095,0.188-0.183,0.284-0.275c0.079-0.075,0.158-0.153,0.239-0.229
			c0.025-0.023,0.051-0.048,0.073-0.07c0.297-0.271,0.604-0.522,0.92-0.758c0.103-0.074,0.206-0.14,0.311-0.207
			c0.011-0.009,0.021-0.017,0.031-0.022c0.085-0.058,0.167-0.115,0.252-0.168c0.101-0.062,0.201-0.115,0.303-0.175
			c0.068-0.037,0.141-0.071,0.212-0.106c0-0.002,0.001-0.002,0.001-0.002c0.073-0.037,0.146-0.078,0.22-0.112
			c0.017-0.009,0.033-0.02,0.05-0.025c0.043-0.021,0.084-0.047,0.129-0.067c0.002,0,0.004-0.002,0.006-0.002
			c0.094-0.041,0.189-0.062,0.283-0.093c0.08-0.028,0.159-0.057,0.24-0.078c0.041-0.012,0.081-0.03,0.122-0.038
			c0.02-0.006,0.038-0.015,0.058-0.019c0.046-0.01,0.095-0.008,0.141-0.017c0.012-0.002,0.021-0.002,0.034-0.004
			c-0.011,0.063-0.032,0.121-0.039,0.185c-0.013,0.103-0.009,0.207-0.016,0.31c-0.009,0.131-0.016,0.262-0.018,0.396
			c-0.001,0.006-0.001,0.013-0.001,0.021c-0.001,0.028-0.005,0.062-0.005,0.092c0,0.054-0.009,0.104-0.009,0.16v0.022
			c0.002,0.033,0.008,0.067,0.009,0.104c0.001,0.022,0.004,0.045,0.005,0.065c0.003,0.099,0.013,0.192,0.019,0.291
			c0.006,0.084,0.009,0.168,0.019,0.252c0.002,0.021,0.002,0.039,0.004,0.06c0.011,0.108,0.019,0.22,0.033,0.328
			c0.018,0.142,0.045,0.278,0.066,0.422c0.09,0.541,0.212,1.082,0.367,1.619c0.021,0.071,0.045,0.146,0.067,0.219
			c0.021,0.07,0.043,0.142,0.063,0.209c0.188,0.593,0.397,1.175,0.623,1.742c0.03,0.071,0.06,0.146,0.089,0.219
			s0.058,0.146,0.086,0.218c0.146,0.349,0.29,0.692,0.438,1.026c0.002,0.006,0.005,0.013,0.007,0.017
			c0.141,0.323,0.3,0.638,0.454,0.955c0.913,1.89,2.018,3.662,3.181,5.276c0.104,0.142,0.205,0.274,0.309,0.414
			c0.542,0.733,1.088,1.44,1.629,2.104c0.045,0.056,0.09,0.106,0.135,0.162c0.047,0.056,0.092,0.11,0.139,0.166
			c0.538,0.651,1.07,1.274,1.573,1.849c1.499,1.711,3.359,3.686,5.579,5.428C109.461,122.121,109.534,123.484,109.446,124.871
			 M60.773,120.966c-0.025-0.02-0.054-0.036-0.081-0.055c-0.016-0.013-0.033-0.021-0.05-0.033c-0.412-0.274-0.827-0.551-1.249-0.819
			c-0.091-0.06-0.186-0.112-0.277-0.168c-1.154-0.724-2.357-1.375-3.672-1.74l-0.221-0.043l0.076-0.221
			c0.343-1.322,0.383-2.699,0.333-4.072c-0.004-0.106-0.007-0.213-0.012-0.319c-0.023-0.5-0.058-1-0.09-1.494
			c-0.001-0.01-0.002-0.021-0.002-0.028c-0.003-0.041-0.006-0.084-0.008-0.125c-0.004-0.054-0.007-0.106-0.01-0.158
			c-0.1-1.515-0.188-3.065,0.031-4.563c0.162-1.112,0.517-2.205,1.008-3.265c0.042-0.09,0.084-0.182,0.128-0.271
			c0.372-0.754,0.823-1.483,1.348-2.188c0.028-0.036,0.059-0.073,0.086-0.11c0.03-0.039,0.061-0.078,0.091-0.114
			c0.288-0.373,0.6-0.734,0.93-1.085c0.07-0.075,0.137-0.151,0.209-0.225c0.824-0.847,1.751-1.634,2.794-2.326
			c1.158-0.771,2.382-1.394,3.617-1.918c0.055-0.022,0.109-0.049,0.167-0.071c0.052-0.022,0.104-0.046,0.154-0.068
			c0.224-0.091,0.443-0.179,0.666-0.264c0.121-0.047,0.242-0.089,0.364-0.133c2.197-0.806,4.377-1.319,6.25-1.691
			c1.174-0.235,2.48-0.47,3.858-0.663c0.077-0.01,0.149-0.021,0.228-0.033c0.08-0.01,0.158-0.022,0.24-0.033
			c1.01-0.132,2.06-0.236,3.131-0.296c0.231-0.013,0.466-0.014,0.698-0.021c1.416-0.051,2.859-0.025,4.301,0.138
			c1.162,0.132,2.397,0.299,3.586,0.592c0.04,0.011,0.081,0.019,0.121,0.028c0.129,0.033,0.255,0.073,0.383,0.109
			c0.107,0.029,0.214,0.061,0.32,0.094c0.032,0.01,0.064,0.018,0.098,0.028c0.382,0.122,0.756,0.259,1.116,0.417
			c0.109,0.048,0.212,0.104,0.319,0.156c0.017,0.009,0.034,0.018,0.052,0.025c0.09,0.045,0.183,0.086,0.271,0.133
			c0.103,0.056,0.199,0.116,0.3,0.175c0.067,0.041,0.135,0.086,0.2,0.129c0.002,0,0.002,0.001,0.003,0.001
			c0.068,0.046,0.141,0.088,0.209,0.134c0.015,0.011,0.03,0.021,0.047,0.03c0.039,0.027,0.082,0.049,0.121,0.077
			c0.002,0.001,0.004,0.003,0.007,0.004c0.081,0.06,0.144,0.135,0.218,0.199c0.064,0.055,0.127,0.11,0.188,0.169
			c0.029,0.031,0.066,0.058,0.098,0.089c0.013,0.016,0.032,0.026,0.046,0.041c0.03,0.035,0.054,0.075,0.084,0.111
			c0.007,0.008,0.012,0.019,0.019,0.028c-0.059,0.022-0.119,0.03-0.18,0.057c-0.093,0.041-0.18,0.095-0.271,0.14
			c-0.119,0.059-0.237,0.119-0.354,0.186c-0.005,0.002-0.011,0.004-0.016,0.008c-0.027,0.015-0.056,0.025-0.08,0.041
			c-0.047,0.025-0.099,0.047-0.144,0.074c-0.008,0.004-0.016,0.008-0.021,0.014c-0.032,0.018-0.062,0.041-0.092,0.062
			c-0.019,0.011-0.034,0.022-0.054,0.034c-0.081,0.051-0.158,0.107-0.239,0.161c-0.07,0.047-0.143,0.093-0.211,0.142
			c-0.018,0.012-0.032,0.021-0.049,0.032c-0.09,0.063-0.181,0.126-0.268,0.192c-0.112,0.086-0.22,0.179-0.329,0.269
			c-0.425,0.351-0.833,0.726-1.221,1.128c-0.054,0.057-0.104,0.111-0.156,0.168c-0.049,0.055-0.1,0.107-0.149,0.162
			c-0.418,0.457-0.815,0.93-1.194,1.408c-0.05,0.064-0.1,0.125-0.147,0.188c-0.047,0.063-0.096,0.121-0.142,0.183
			c-0.231,0.3-0.456,0.599-0.674,0.894c-0.013,0.018-0.021,0.029-0.03,0.045c-0.212,0.287-0.408,0.584-0.607,0.881
			c-1.168,1.725-2.141,3.553-2.95,5.354c-0.071,0.16-0.139,0.316-0.206,0.475c-0.365,0.836-0.704,1.662-1.01,2.463
			c-0.024,0.066-0.048,0.131-0.071,0.197c-0.026,0.068-0.052,0.137-0.075,0.205c-0.295,0.791-0.57,1.564-0.815,2.285
			c-0.729,2.154-1.511,4.75-1.91,7.547c-1.068,0.803-2.217,1.549-3.459,2.164c-1.147,0.57-2.321,0.984-3.494,1.277
			c-0.1,0.023-0.197,0.047-0.298,0.066c-0.467,0.106-0.932,0.19-1.395,0.254c-0.05,0.01-0.099,0.016-0.149,0.021
			c-0.045,0.004-0.09,0.014-0.135,0.018c-0.864,0.1-1.716,0.119-2.55,0.061c-0.1-0.008-0.199-0.016-0.298-0.023
			c-1.144-0.104-2.248-0.347-3.277-0.756c-1.414-0.563-2.724-1.422-3.992-2.271C60.86,121.023,60.816,120.996,60.773,120.966
			 M59.081,90.018c-0.325-0.351-0.632-0.711-0.915-1.081c-0.029-0.038-0.061-0.076-0.087-0.114c-0.029-0.038-0.062-0.076-0.09-0.113
			c-0.519-0.701-0.962-1.432-1.326-2.186c-0.046-0.089-0.088-0.179-0.13-0.27c-0.476-1.039-0.818-2.111-0.979-3.203
			c-0.219-1.506-0.13-3.07-0.029-4.595c0.004-0.051,0.006-0.103,0.012-0.153c0.002-0.032,0.003-0.066,0.006-0.099
			c0.001-0.02,0.002-0.04,0.004-0.06c0.032-0.494,0.063-0.992,0.088-1.491c0.004-0.106,0.007-0.214,0.011-0.321
			c0.048-1.362,0.006-2.732-0.337-4.054l-0.073-0.213l0.23-0.044c1.316-0.364,2.53-1.018,3.692-1.748
			c0.092-0.057,0.184-0.112,0.272-0.17c0.421-0.27,0.837-0.548,1.249-0.824c0.008-0.005,0.017-0.011,0.025-0.016
			c0.032-0.023,0.068-0.046,0.104-0.07c0.044-0.029,0.088-0.058,0.132-0.087c1.263-0.844,2.563-1.695,3.966-2.254
			c1.048-0.417,2.172-0.656,3.331-0.76c0.101-0.008,0.199-0.019,0.3-0.024c0.841-0.055,1.697-0.03,2.567,0.074
			c0.047,0.005,0.093,0.012,0.141,0.018c0.049,0.008,0.097,0.013,0.146,0.02c0.466,0.064,0.935,0.152,1.404,0.263
			c0.099,0.023,0.197,0.044,0.298,0.07c1.145,0.291,2.29,0.7,3.412,1.257c1.246,0.617,2.395,1.366,3.469,2.172
			c0.398,2.799,1.18,5.401,1.912,7.558c0.239,0.705,0.484,1.382,0.734,2.044c0.023,0.066,0.05,0.134,0.074,0.2
			c0.026,0.07,0.054,0.141,0.078,0.209c0.339,0.88,0.688,1.723,1.048,2.53c0.074,0.167,0.15,0.331,0.227,0.495
			c0.677,1.472,1.392,2.83,2.157,4.085c0.218,0.357,0.459,0.74,0.713,1.132c0.181,0.279,0.363,0.563,0.563,0.851
			c0.238,0.346,0.488,0.696,0.749,1.047c0.049,0.063,0.103,0.127,0.151,0.19c0.048,0.064,0.1,0.126,0.147,0.19
			c0.406,0.522,0.837,1.038,1.297,1.532c-0.604-0.135-1.214-0.242-1.818-0.33c-0.078-0.012-0.156-0.023-0.234-0.033
			c-0.077-0.011-0.154-0.023-0.229-0.034c-0.375-0.049-0.746-0.095-1.109-0.136c-0.018-0.002-0.035-0.002-0.051-0.004
			c-0.356-0.04-0.712-0.062-1.067-0.086c-2.075-0.15-4.144-0.078-6.107,0.121c-0.177,0.017-0.347,0.039-0.521,0.059
			c-0.905,0.101-1.79,0.221-2.635,0.357c-0.071,0.012-0.137,0.023-0.207,0.035c-0.074,0.013-0.146,0.025-0.216,0.037
			c-0.834,0.141-1.641,0.288-2.389,0.438c-2.229,0.444-4.867,1.067-7.487,2.119c-1.231-0.526-2.45-1.146-3.605-1.913
			c-1.069-0.712-2.018-1.523-2.856-2.395C59.219,90.167,59.149,90.091,59.081,90.018 M80.759,65.327
			c0.081-1.28,0.308-2.505,0.642-3.666c0.028-0.098,0.06-0.193,0.088-0.291c0.143-0.458,0.303-0.902,0.479-1.336
			c0.019-0.046,0.038-0.092,0.057-0.137c0.02-0.042,0.034-0.085,0.055-0.127c0.346-0.798,0.755-1.545,1.222-2.238
			c0.056-0.083,0.112-0.164,0.17-0.246c0.664-0.936,1.423-1.773,2.293-2.461c1.195-0.941,2.595-1.646,3.963-2.32
			c0.047-0.023,0.093-0.047,0.139-0.069c0.029-0.015,0.06-0.029,0.087-0.043c0.021-0.01,0.037-0.02,0.058-0.028
			c0.442-0.218,0.89-0.439,1.334-0.67c0.096-0.05,0.188-0.105,0.285-0.157c1.204-0.639,2.37-1.354,3.341-2.31l0.146-0.17
			l0.154,0.176c0.973,0.958,2.147,1.676,3.359,2.318c0.096,0.051,0.188,0.106,0.286,0.158c0.444,0.229,0.895,0.451,1.341,0.671
			l0.021,0.012c0.037,0.018,0.074,0.037,0.112,0.055c0.049,0.024,0.099,0.05,0.148,0.074c1.356,0.669,2.742,1.37,3.93,2.304
			c0.882,0.698,1.652,1.552,2.322,2.505c0.058,0.082,0.113,0.164,0.171,0.247c0.468,0.7,0.875,1.456,1.22,2.262
			c0.018,0.043,0.036,0.087,0.054,0.131c0.021,0.044,0.037,0.089,0.058,0.134c0.177,0.438,0.335,0.887,0.475,1.349
			c0.029,0.098,0.062,0.194,0.088,0.292c0.32,1.138,0.538,2.333,0.618,3.583c0.087,1.389,0.013,2.76-0.148,4.093
			c-0.008,0.06-0.014,0.12-0.021,0.181c-0.007,0.055-0.012,0.112-0.021,0.168c-0.03,0.238-0.063,0.474-0.103,0.709
			c-0.021,0.129-0.045,0.255-0.067,0.382c-0.4,2.305-1.046,4.45-1.657,6.258c-0.386,1.135-0.835,2.382-1.357,3.671
			c-0.029,0.072-0.056,0.144-0.085,0.216c-0.031,0.075-0.06,0.148-0.091,0.224c-0.394,0.942-0.826,1.905-1.313,2.863
			c-0.104,0.205-0.219,0.408-0.328,0.612c-0.665,1.252-1.408,2.49-2.27,3.655c-0.695,0.94-1.457,1.927-2.306,2.812
			c-0.029,0.029-0.058,0.062-0.087,0.092c-0.093,0.095-0.188,0.183-0.282,0.274c-0.08,0.078-0.161,0.155-0.242,0.231
			c-0.025,0.022-0.048,0.047-0.073,0.069c-0.296,0.271-0.602,0.525-0.921,0.759c-0.101,0.074-0.206,0.139-0.309,0.208
			c-0.013,0.008-0.022,0.015-0.033,0.021c-0.084,0.057-0.166,0.116-0.251,0.169c-0.101,0.062-0.201,0.116-0.302,0.174
			c-0.069,0.038-0.143,0.071-0.213,0.108h-0.001c-0.072,0.039-0.146,0.079-0.221,0.115c-0.016,0.008-0.032,0.018-0.049,0.026
			c-0.044,0.02-0.084,0.046-0.128,0.064c-0.002,0.002-0.005,0.003-0.007,0.004c-0.091,0.041-0.188,0.057-0.279,0.088
			c-0.079,0.027-0.158,0.055-0.237,0.074c-0.045,0.012-0.087,0.032-0.132,0.042c-0.017,0.003-0.034,0.012-0.051,0.016
			c-0.048,0.01-0.095,0.013-0.143,0.021c-0.013,0.002-0.023,0.002-0.034,0.004c-0.007,0.001-0.017,0.001-0.023,0.002
			c-0.025,0.004-0.055,0.004-0.083,0.008c-0.008,0.001-0.016,0.001-0.023,0.002c-0.043,0.005-0.085,0.01-0.131,0.013
			c-0.021,0.002-0.043,0.005-0.063,0.007c-0.044,0.003-0.086,0.011-0.13,0.013c-0.043,0.001-0.086,0.012-0.129,0.012h-0.002
			c-0.007,0-0.016,0.002-0.021,0.002c-0.035,0-0.067-0.007-0.104-0.009c-0.043-0.002-0.086-0.006-0.129-0.01
			c-0.021-0.002-0.043-0.003-0.064-0.005c-0.048-0.006-0.096-0.006-0.143-0.012c-0.003-0.001-0.009,0-0.012-0.001
			c-0.034-0.006-0.071-0.018-0.107-0.023c-0.007-0.001-0.016-0.003-0.021-0.004c-0.001-0.001-0.002-0.001-0.004-0.001
			c-0.046-0.009-0.091-0.02-0.138-0.03c-0.026-0.005-0.053-0.01-0.079-0.016c-0.021-0.006-0.042-0.008-0.063-0.015
			c-0.087-0.022-0.174-0.055-0.26-0.084c-0.093-0.032-0.186-0.064-0.275-0.104c-0.068-0.029-0.136-0.063-0.201-0.096
			c-0.007-0.003-0.017-0.008-0.023-0.012c-0.016-0.008-0.033-0.015-0.049-0.023c-0.032-0.017-0.064-0.028-0.095-0.045
			c-0.027-0.015-0.051-0.034-0.076-0.048c-0.01-0.007-0.021-0.014-0.029-0.02c-0.03-0.017-0.058-0.038-0.088-0.055
			c-0.021-0.015-0.047-0.031-0.071-0.046c-0.101-0.061-0.198-0.126-0.299-0.19c-0.084-0.054-0.169-0.103-0.252-0.16
			c-0.005-0.003-0.01-0.007-0.016-0.01c-0.114-0.079-0.229-0.155-0.34-0.238c-0.351-0.261-0.688-0.545-1.015-0.846
			c-0.021-0.02-0.043-0.042-0.063-0.063c-0.1-0.091-0.194-0.186-0.289-0.279c-0.098-0.096-0.197-0.186-0.291-0.282
			c-0.042-0.044-0.087-0.085-0.129-0.13c-1.457-1.536-2.645-3.34-3.521-4.781c-0.312-0.512-0.609-1.056-0.907-1.604
			c-0.105-0.198-0.215-0.395-0.317-0.598c-0.472-0.913-0.919-1.894-1.354-2.916c-0.03-0.075-0.063-0.15-0.095-0.226
			c-0.031-0.076-0.063-0.151-0.095-0.228c-0.452-1.095-0.895-2.23-1.313-3.464c-0.612-1.811-1.259-3.96-1.661-6.27
			c-0.021-0.127-0.046-0.253-0.065-0.381c-0.038-0.235-0.071-0.472-0.104-0.71c-0.007-0.056-0.013-0.112-0.019-0.168
			c-0.008-0.061-0.015-0.121-0.022-0.182C80.745,68.077,80.671,66.71,80.759,65.327 M129.43,69.23
			c0.026,0.018,0.055,0.036,0.082,0.054c0.017,0.012,0.033,0.022,0.049,0.033c0.412,0.276,0.828,0.552,1.248,0.821
			c0.093,0.058,0.188,0.11,0.278,0.168c1.156,0.723,2.356,1.375,3.673,1.738l0.221,0.043l-0.076,0.222
			c-0.344,1.322-0.383,2.7-0.333,4.073c0.004,0.105,0.008,0.213,0.013,0.319c0.021,0.5,0.057,0.999,0.09,1.494
			c0,0.01,0.002,0.021,0.002,0.03c0.002,0.041,0.006,0.083,0.008,0.124c0.004,0.053,0.006,0.105,0.01,0.158
			c0.103,1.513,0.188,3.066-0.029,4.563c-0.162,1.114-0.52,2.206-1.009,3.265c-0.043,0.091-0.085,0.183-0.13,0.272
			c-0.371,0.754-0.819,1.483-1.346,2.185c-0.028,0.037-0.059,0.074-0.086,0.112c-0.031,0.038-0.061,0.077-0.089,0.115
			c-0.29,0.372-0.603,0.734-0.933,1.086c-0.068,0.074-0.139,0.15-0.209,0.223c-0.823,0.846-1.752,1.633-2.795,2.325
			c-1.156,0.771-2.383,1.393-3.617,1.919c-0.057,0.023-0.109,0.048-0.167,0.072c-0.054,0.022-0.104,0.045-0.154,0.066
			c-0.224,0.092-0.444,0.181-0.666,0.266c-0.12,0.046-0.241,0.088-0.364,0.133c-2.196,0.805-4.377,1.318-6.25,1.691
			c-1.176,0.233-2.48,0.469-3.861,0.662c-0.074,0.01-0.147,0.021-0.227,0.031c-0.08,0.012-0.158,0.023-0.238,0.033
			c-1.012,0.133-2.062,0.238-3.133,0.297c-0.231,0.012-0.466,0.014-0.698,0.021c-1.416,0.051-2.858,0.023-4.299-0.139
			c-1.162-0.133-2.396-0.299-3.587-0.593c-0.04-0.011-0.081-0.019-0.121-0.026c-0.128-0.031-0.254-0.072-0.381-0.107
			c-0.108-0.031-0.216-0.063-0.322-0.098c-0.033-0.008-0.064-0.018-0.098-0.025c-0.382-0.123-0.755-0.258-1.115-0.418
			c-0.114-0.049-0.221-0.107-0.332-0.162c-0.013-0.006-0.024-0.012-0.039-0.021c-0.09-0.043-0.183-0.084-0.271-0.131
			c-0.104-0.059-0.201-0.117-0.301-0.177c-0.067-0.041-0.134-0.085-0.199-0.13h-0.001c-0.07-0.045-0.143-0.086-0.21-0.133
			c-0.017-0.012-0.031-0.021-0.046-0.029c-0.04-0.027-0.083-0.051-0.123-0.079c-0.001-0.002-0.004-0.002-0.007-0.004
			c-0.08-0.059-0.144-0.134-0.219-0.198c-0.063-0.056-0.127-0.11-0.185-0.168c-0.031-0.032-0.069-0.059-0.1-0.091
			c-0.015-0.015-0.031-0.025-0.046-0.041c-0.029-0.034-0.055-0.074-0.084-0.11c-0.008-0.008-0.012-0.019-0.019-0.027
			c0.058-0.022,0.12-0.032,0.178-0.058c0.093-0.041,0.18-0.096,0.271-0.141c0.118-0.058,0.236-0.119,0.354-0.183
			c0.006-0.003,0.012-0.006,0.019-0.009c0.024-0.015,0.053-0.026,0.077-0.04c0.048-0.027,0.099-0.047,0.146-0.075
			c0.007-0.004,0.015-0.008,0.021-0.013c0.032-0.02,0.063-0.043,0.097-0.063c0.017-0.01,0.03-0.022,0.049-0.033
			c0.081-0.051,0.16-0.107,0.24-0.16c0.069-0.048,0.143-0.094,0.212-0.143c0.016-0.011,0.03-0.021,0.048-0.032
			c0.09-0.063,0.18-0.126,0.268-0.192c0.112-0.086,0.222-0.179,0.329-0.27c0.425-0.349,0.832-0.724,1.219-1.127
			c0.055-0.055,0.105-0.111,0.157-0.169c0.05-0.053,0.101-0.105,0.149-0.16c0.418-0.457,0.815-0.93,1.194-1.411
			c0.051-0.062,0.1-0.124,0.147-0.186c0.046-0.06,0.095-0.121,0.142-0.181c0.231-0.301,0.456-0.6,0.676-0.895
			c0.01-0.014,0.019-0.028,0.028-0.043c0.212-0.288,0.408-0.586,0.608-0.881c1.167-1.725,2.14-3.552,2.95-5.352
			c0.07-0.16,0.138-0.317,0.206-0.476c0.364-0.837,0.705-1.663,1.009-2.463c0.023-0.067,0.048-0.131,0.072-0.197
			c0.024-0.069,0.051-0.136,0.074-0.205c0.295-0.792,0.569-1.563,0.815-2.285c0.729-2.154,1.51-4.752,1.91-7.547
			c1.069-0.803,2.218-1.549,3.459-2.165c1.147-0.57,2.323-0.985,3.496-1.276c0.099-0.025,0.195-0.047,0.296-0.069
			c0.467-0.106,0.932-0.19,1.396-0.254c0.052-0.006,0.101-0.013,0.148-0.019c0.045-0.006,0.09-0.013,0.135-0.019
			c0.865-0.098,1.716-0.117,2.549-0.059c0.102,0.007,0.199,0.015,0.298,0.024c1.146,0.107,2.249,0.346,3.278,0.755
			c1.414,0.563,2.727,1.423,3.992,2.271C129.344,69.173,129.387,69.202,129.43,69.23 M131.948,38.505
			c-2.262,1.121-4.381,2.437-6.372,3.861c0.24-2.444,0.321-4.947,0.162-7.475c-0.468-7.39-3.011-14.034-7.121-18.911
			c0.188-0.032,0.374-0.073,0.563-0.1c3.194-0.464,6.51-0.243,9.719-0.028c3.92,0.259,7.976,0.531,11.802-0.462l0.563-0.193
			l0.115,0.592c1.049,3.801,3.311,7.177,5.498,10.441c1.791,2.672,3.641,5.436,4.835,8.43c0.072,0.185,0.134,0.373,0.202,0.56
			C145.627,34.092,138.589,35.211,131.948,38.505 M64.515,34.893c-0.16,2.518-0.08,5.012,0.158,7.448
			c-1.997-1.431-4.124-2.752-6.395-3.877c-6.633-3.289-13.657-4.41-19.938-3.289c0.064-0.18,0.124-0.36,0.193-0.537
			c1.192-2.994,3.045-5.756,4.835-8.428c2.188-3.266,4.449-6.643,5.502-10.452l0.112-0.582l0.571,0.193
			c3.816,0.993,7.873,0.723,11.794,0.459c3.209-0.214,6.526-0.436,9.716,0.028c0.196,0.029,0.392,0.071,0.585,0.104
			C67.532,20.84,64.983,27.494,64.515,34.893 M27.669,91.484c2.101,1.397,4.301,2.576,6.529,3.587
			c-2.236,1.016-4.444,2.196-6.555,3.598c-6.164,4.1-10.646,9.625-12.815,15.623c-0.122-0.146-0.25-0.287-0.368-0.438
			c-1.997-2.529-3.464-5.516-4.882-8.4c-1.734-3.527-3.527-7.176-6.303-9.99L2.83,95.074l0.452-0.395
			c2.769-2.811,4.562-6.457,6.296-9.985c1.418-2.886,2.885-5.87,4.882-8.4c0.123-0.155,0.256-0.304,0.383-0.455
			C17.009,81.846,21.496,87.379,27.669,91.484 M43.152,155.41c4.937,0,10.131-1.254,15.104-3.719
			c2.26-1.121,4.381-2.438,6.372-3.861c-0.24,2.443-0.321,4.945-0.161,7.475c0.467,7.389,3.01,14.033,7.12,18.912
			c-0.188,0.031-0.374,0.072-0.563,0.098c-3.189,0.467-6.509,0.244-9.717,0.029c-3.921-0.262-7.976-0.531-11.802,0.461l-0.563,0.193
			l-0.115-0.592c-1.051-3.801-3.313-7.178-5.5-10.443c-1.79-2.672-3.642-5.434-4.833-8.428c-0.073-0.182-0.135-0.369-0.201-0.555
			C39.873,155.264,41.497,155.41,43.152,155.41 M125.688,155.305c0.16-2.521,0.08-5.013-0.157-7.449
			c1.997,1.433,4.124,2.752,6.396,3.877c4.971,2.466,10.168,3.72,15.104,3.72c1.646,0,3.264-0.146,4.833-0.427
			c-0.063,0.179-0.123,0.358-0.191,0.533c-1.194,2.996-3.045,5.758-4.835,8.431c-2.188,3.266-4.449,6.641-5.502,10.45l-0.113,0.582
			l-0.57-0.194c-2.057-0.533-4.182-0.701-6.318-0.701c-1.827,0-3.664,0.123-5.475,0.242c-3.207,0.217-6.522,0.438-9.717-0.027
			c-0.195-0.028-0.391-0.069-0.586-0.104C122.673,169.355,125.221,162.703,125.688,155.305 M162.537,98.71
			c-2.104-1.396-4.304-2.573-6.529-3.586c2.234-1.015,4.442-2.195,6.553-3.598c6.164-4.1,10.647-9.625,12.817-15.623
			c0.122,0.146,0.25,0.287,0.368,0.438c1.994,2.529,3.463,5.515,4.882,8.399c1.732,3.528,3.525,7.177,6.302,9.991l0.446,0.39
			l-0.452,0.397c-2.771,2.81-4.563,6.457-6.296,9.984c-1.419,2.885-2.888,5.869-4.882,8.398c-0.123,0.156-0.258,0.305-0.385,0.455
			C173.196,108.352,168.71,102.816,162.537,98.71"/>
	</g>
</g>
</svg>
