<?xml version="1.0" encoding="utf-8"?>
<!-- Generator: Adobe Illustrator 24.2.1, SVG Export Plug-In . SVG Version: 6.00 Build 0)  -->
<svg version="1.1" id="Layer_1" xmlns="http://www.w3.org/2000/svg" xmlns:xlink="http://www.w3.org/1999/xlink" x="0px" y="0px"
	 viewBox="0 0 1300 650" style="enable-background:new 0 0 1300 650;" xml:space="preserve">
<style type="text/css">
	.st0{fill:#F5F5F5;}
	.st1{fill:#D6D1CE;}
	.st2{fill:#BF7A38;}
	.st3{fill:#F7F7F7;stroke:#FF4C06;stroke-width:2.8346;stroke-miterlimit:10;}
	.st4{fill:#FF4C06;}
	.st5{fill:#862525;}
	.st6{fill:#9F9F9F;}
	.st7{fill:#5D686D;}
	.st8{fill:#717775;}
	.st9{fill:#2C484C;}
	.st10{fill:#627767;}
	.st11{fill:#34614B;}
	.st12{fill:#363B42;}
	.st13{fill:#D2DBD3;}
	.st14{fill:#3B5A4A;}
	.st15{fill:#AF8489;}
	.st16{fill:#7F7F7F;}
	.st17{fill:#BDBEC0;}
	.st18{fill:#E9E2D4;}
	.st19{fill:#353E3B;}
	.st20{fill:#CCCCCC;}
</style>
<rect x="-0.13" y="2.07" class="st0" width="1299.13" height="646.93"/>
<path class="st1" d="M344.87,394.07L344.87,394.07c-9.9,0-18-8.1-18-18v-254c0-9.9,8.1-18,18-18h0c9.9,0,18,8.1,18,18v254
	C362.87,385.97,354.77,394.07,344.87,394.07z"/>
<path class="st1" d="M933.87,398.07L933.87,398.07c-9.9,0-18-8.1-18-18v-258c0-9.9,8.1-18,18-18l0,0c9.9,0,18,8.1,18,18v258
	C951.87,389.97,943.77,398.07,933.87,398.07z"/>
<path class="st1" d="M1120.87,407.07h-982c-8.8,0-16-7.2-16-16v-4c0-8.8,7.2-16,16-16h982c8.8,0,16,7.2,16,16v4
	C1136.87,399.87,1129.67,407.07,1120.87,407.07z"/>
<path class="st1" d="M630.37,603.07L630.37,603.07c-11.28,0-20.5-9.23-20.5-20.5v-185c0-11.27,9.22-20.5,20.5-20.5l0,0
	c11.28,0,20.5,9.23,20.5,20.5v185C650.87,593.85,641.65,603.07,630.37,603.07z"/>
<path class="st1" d="M940.37,184.07h-47c-4.67,0-8.5-3.82-8.5-8.5v0c0-4.68,3.83-8.5,8.5-8.5h47c4.67,0,8.5,3.82,8.5,8.5v0
	C948.87,180.25,945.05,184.07,940.37,184.07z"/>
<path class="st1" d="M939.37,344.07h-47c-4.67,0-8.5-3.82-8.5-8.5v0c0-4.67,3.83-8.5,8.5-8.5h47c4.67,0,8.5,3.83,8.5,8.5v0
	C947.87,340.25,944.05,344.07,939.37,344.07z"/>
<circle class="st2" cx="297.87" cy="336.07" r="8.49"/>
<circle class="st2" cx="395.87" cy="335.07" r="8.49"/>
<circle class="st2" cx="869.87" cy="175.07" r="8.49"/>
<circle class="st2" cx="689.87" cy="451.07" r="8.49"/>
<circle class="st2" cx="982.87" cy="337.07" r="8.49"/>
<circle class="st2" cx="689.87" cy="494.07" r="8.49"/>
<circle class="st3" cx="862.87" cy="335.07" r="11.31"/>
<g>
	<path d="M429,334.68v3.61h5.88v6.65h-1.8v-5.19h-12.01v-1.45h6.14v-3.61h-8.03v-1.47h13.29c0.53-2.38,0.53-4.11,0.53-5.59h-11.53
		v-1.45h13.31v1.43c0,1.47,0,3.28-0.48,5.61h2.79v1.47H429z"/>
	<path d="M451.59,335.01c-3.23,0.53-5.92,0.64-9.57,0.64h-1.58v-5.52h7.13v-2.49h-7.2v-1.45h8.98v5.32h-7.15v2.66
		c3.5,0,6.07-0.11,9.2-0.62L451.59,335.01z M453.81,337.05h1.78v7.64h-12.78v-7.64h1.78v2.33h9.22V337.05z M453.81,340.79h-9.22
		v2.42h9.22V340.79z M455.6,325.24v10.82h-1.8v-10.82H455.6z"/>
	<path d="M477.51,340.71v1.47h-17.84v-1.47h6.93v-7.06h1.8v7.06H477.51z M473.57,328.67h-12.04v-1.47h13.84v1.96
		c0,2.44,0,5.15-0.75,9.13l-1.8-0.2c0.75-3.78,0.75-6.56,0.75-8.93V328.67z"/>
	<path d="M489.72,334.57v3.1c3.67,0.18,5.9,1.45,5.9,3.61c0,2.33-2.57,3.65-6.8,3.65c-4.29,0-6.87-1.32-6.87-3.65
		c0-2.16,2.22-3.43,5.94-3.61v-3.1h-8.01v-1.45h13.27c0.55-2.38,0.55-4.11,0.55-5.59h-11.53v-1.47h13.31v1.43
		c0,1.47,0,3.26-0.51,5.63h2.79v1.45H489.72z M488.81,339.1c-3.17,0-5.06,0.79-5.06,2.18c0,1.41,1.89,2.2,5.06,2.2
		c3.1,0,5-0.79,5-2.2C493.81,339.89,491.92,339.1,488.81,339.1z"/>
	<path d="M510.07,335.8h-9.13v-9.33h1.78v3.08h5.59v-3.08h1.76V335.8z M502.61,338.2h12.83v6.78h-1.8v-5.33h-11.02V338.2z
		 M508.31,330.96h-5.59v3.39h5.59V330.96z M518.36,331.84h-2.93v5.3h-1.8v-11.9h1.8v5.1h2.93V331.84z"/>
	<path d="M530.17,334.98v1.94h5.74v4.44h-11.59v1.96h12.19v1.41h-13.95v-4.69h11.57v-1.76H522.5v-1.36h5.88v-1.94h-8.03v-1.45h17.87
		v1.45H530.17z M535.9,331.88h-13.22v-6.01h13.22V331.88z M534.11,327.31h-9.68v3.15h9.68V327.31z"/>
	<path d="M552.97,336.15c-4.09,0.68-8.82,0.79-12.32,0.79l-0.18-1.47c1.25,0,2.68-0.02,4.18-0.04v-4.27h1.78v4.2
		c2.16-0.09,4.4-0.26,6.4-0.53L552.97,336.15z M549.18,333.44c0.46-2.27,0.53-3.96,0.53-5.21h-8.05v-1.47h9.81v1.03
		c0,1.3,0,3.26-0.51,5.85L549.18,333.44z M545.29,343.04h11.31v1.47h-13.11v-5.79h1.8V343.04z M558.78,331.64v1.5h-2.82v6.95h-1.8
		v-14.87h1.8v6.42H558.78z"/>
</g>
<g>
	<path d="M750,145.68v3.61h5.88v6.65h-1.8v-5.19h-12.01v-1.45h6.14v-3.61h-8.03v-1.47h13.29c0.53-2.38,0.53-4.11,0.53-5.59h-11.53
		v-1.45h13.31v1.43c0,1.47,0,3.28-0.48,5.61h2.79v1.47H750z"/>
	<path d="M772.59,146.01c-3.23,0.53-5.92,0.64-9.57,0.64h-1.58v-5.52h7.13v-2.49h-7.2v-1.45h8.98v5.32h-7.15v2.66
		c3.5,0,6.07-0.11,9.2-0.62L772.59,146.01z M774.81,148.05h1.78v7.64h-12.78v-7.64h1.78v2.33h9.22V148.05z M774.81,151.79h-9.22
		v2.42h9.22V151.79z M776.6,136.24v10.83h-1.8v-10.83H776.6z"/>
	<path d="M790.89,147.11h-9.22v-9.18h9.22V147.11z M789.13,139.38h-5.7v6.27h5.7V139.38z M797.43,153.84v1.45h-13.29v-6.23h1.8v4.77
		H797.43z M796.84,150.41h-1.8v-14.17h1.8V150.41z"/>
	<path d="M818.79,146.12v1.47h-17.91v-1.47h8.01v-3.01h1.8v3.01H818.79z M816.97,144.16c-3.01-0.51-5.92-2.07-7.17-4.33
		c-1.23,2.27-4.14,3.83-7.15,4.33l-0.68-1.45c3.5-0.48,6.91-2.68,6.91-5.3v-0.88h1.85v0.88c0,2.62,3.41,4.82,6.93,5.3L816.97,144.16
		z M802.86,149.51h13.66v6.47h-1.8v-5h-11.86V149.51z"/>
	<path d="M831.07,146.8h-9.13v-9.33h1.78v3.08h5.59v-3.08h1.76V146.8z M823.61,149.2h12.83v6.78h-1.8v-5.32h-11.02V149.2z
		 M829.31,141.96h-5.59v3.39h5.59V141.96z M839.36,142.84h-2.93v5.3h-1.8v-11.9h1.8v5.1h2.93V142.84z"/>
	<path d="M851.17,145.98v1.94h5.74v4.44h-11.59v1.96h12.19v1.41h-13.95v-4.69h11.57v-1.76H843.5v-1.36h5.88v-1.94h-8.03v-1.45h17.87
		v1.45H851.17z M856.9,142.88h-13.22v-6.01h13.22V142.88z M855.11,138.31h-9.68v3.15h9.68V138.31z"/>
	<path d="M873.97,147.15c-4.09,0.68-8.82,0.79-12.32,0.79l-0.18-1.47c1.25,0,2.68-0.02,4.18-0.04v-4.27h1.78v4.2
		c2.16-0.09,4.4-0.26,6.4-0.53L873.97,147.15z M870.18,144.44c0.46-2.27,0.53-3.96,0.53-5.21h-8.05v-1.47h9.81v1.03
		c0,1.3,0,3.26-0.51,5.85L870.18,144.44z M866.29,154.04h11.31v1.47h-13.11v-5.79h1.8V154.04z M879.78,142.64v1.5h-2.82v6.95h-1.8
		v-14.87h1.8v6.42H879.78z"/>
</g>
<g>
	<path d="M709.65,454.59c2.64-0.02,4.51-0.13,6.67-0.59l0.15,1.5c-2.35,0.51-4.36,0.59-7.3,0.59h-1.3v-12.48h7.35v1.47h-5.57V454.59
		z M723.93,441.22v19.74h-1.74v-10.34h-2.79v9.35h-1.69v-18.31h1.69v7.48h2.79v-7.92H723.93z"/>
	<path d="M739.11,445.09h-11.64v-1.45h4.91v-2.42h1.8v2.42h4.93V445.09z M733.28,453.52c-2.79,0-4.71-1.45-4.71-3.67
		c0-2.2,1.91-3.65,4.71-3.65c2.79,0,4.73,1.45,4.73,3.65C738.01,452.06,736.07,453.52,733.28,453.52z M733.28,452.11
		c1.78,0,3.01-0.88,3.01-2.27c0-1.36-1.23-2.24-3.01-2.24s-2.99,0.88-2.99,2.24C730.28,451.23,731.49,452.11,733.28,452.11z
		 M732.24,459.04h11.35v1.47h-13.16v-5.65h1.8V459.04z M745.62,447.73v1.52h-2.9v6.78h-1.8v-14.81h1.8v6.51H745.62z"/>
	<path d="M757.89,452.11h-9.22v-9.18h9.22V452.11z M756.13,444.38h-5.7v6.27h5.7V444.38z M764.43,458.84v1.45h-13.29v-6.23h1.8v4.77
		H764.43z M763.84,455.41h-1.8v-14.17h1.8V455.41z"/>
	<path d="M777.72,450.68v3.61h5.88v6.65h-1.8v-5.19h-12.01v-1.45h6.14v-3.61h-8.03v-1.47h13.29c0.53-2.38,0.53-4.11,0.53-5.59
		h-11.53v-1.45h13.31v1.43c0,1.47,0,3.28-0.48,5.61h2.79v1.47H777.72z"/>
	<path d="M804.38,441.22v11.64h-1.83v-2.84h-5c-0.92,1.12-2.35,1.8-4.07,1.8c-2.9,0-5.06-1.98-5.06-4.78c0-2.77,2.16-4.73,5.06-4.73
		c1.72,0,3.17,0.68,4.09,1.8h4.97v-2.88L804.38,441.22z M796.86,447.05c0-1.85-1.43-3.19-3.37-3.19c-1.91,0-3.34,1.34-3.34,3.19
		c0,1.89,1.43,3.23,3.34,3.23C795.43,450.28,796.86,448.94,796.86,447.05z M791.18,453.93h13.2v7.04h-1.83v-5.57h-11.38V453.93z
		 M802.56,448.54v-2.97h-4.2c0.13,0.46,0.22,0.95,0.22,1.47c0,0.55-0.09,1.03-0.22,1.5H802.56z"/>
	<path d="M814.98,446.47c0,3.48,2.24,7.06,5.02,8.45l-1.12,1.43c-2.09-1.12-3.87-3.43-4.77-6.14c-0.86,2.88-2.68,5.35-4.91,6.54
		l-1.08-1.45c2.84-1.45,5.08-5.24,5.08-8.82v-3.54h1.78V446.47z M826.8,450.72h-3.26v10.23h-1.8v-19.71h1.8v7.99h3.26V450.72z"/>
	<path d="M838.55,451.8h-9.13v-9.33h1.78v3.08h5.59v-3.08h1.76V451.8z M831.09,454.2h12.83v6.78h-1.8v-5.33h-11.02V454.2z
		 M836.79,446.96h-5.59v3.39h5.59V446.96z M846.84,447.84h-2.93v5.3h-1.8v-11.9h1.8v5.1h2.93V447.84z"/>
	<path d="M858.65,450.98v1.94h5.74v4.44h-11.6v1.96h12.19v1.41h-13.95v-4.69h11.57v-1.76h-11.64v-1.36h5.88v-1.94h-8.03v-1.45h17.87
		v1.45H858.65z M864.38,447.88h-13.22v-6.01h13.22V447.88z M862.59,443.31h-9.68v3.15h9.68V443.31z"/>
	<path d="M881.45,452.15c-4.09,0.68-8.82,0.79-12.32,0.79l-0.18-1.47c1.25,0,2.68-0.02,4.18-0.04v-4.27h1.78v4.2
		c2.16-0.09,4.4-0.26,6.4-0.53L881.45,452.15z M877.66,449.44c0.46-2.27,0.53-3.96,0.53-5.21h-8.05v-1.47h9.81v1.03
		c0,1.3,0,3.26-0.51,5.85L877.66,449.44z M873.77,459.04h11.31v1.47h-13.11v-5.79h1.8V459.04z M887.26,447.64v1.5h-2.82v6.95h-1.8
		v-14.87h1.8v6.42H887.26z"/>
</g>
<g>
	<path d="M721.53,495.42c-4.09,0.64-8.76,0.75-12.3,0.75l-0.2-1.5c1.25,0,2.71,0,4.18-0.04v-3.89h1.78v3.85
		c2.16-0.09,4.38-0.24,6.4-0.48L721.53,495.42z M717.74,492.72c0.46-2.09,0.51-3.63,0.51-4.82h-8.01v-1.45h9.77v1.06
		c0,1.25,0,3.04-0.51,5.37L717.74,492.72z M724.72,501.32c0,2.29-2.51,3.59-6.56,3.59c-4.05,0-6.56-1.3-6.56-3.59
		c0-2.24,2.51-3.54,6.56-3.54C722.21,497.78,724.72,499.08,724.72,501.32z M722.89,501.32c0-1.34-1.8-2.13-4.73-2.13
		c-2.93,0-4.73,0.79-4.73,2.13c0,1.36,1.8,2.16,4.73,2.16C721.09,503.48,722.89,502.69,722.89,501.32z M727.31,490.61v1.5h-2.79
		v5.41h-1.8v-12.32h1.8v5.41H727.31z"/>
	<path d="M736.33,499.56c1.78-0.09,3.61-0.22,5.3-0.48l0.11,1.34c-4.22,0.75-8.87,0.79-12.32,0.79l-0.24-1.52
		c1.58,0,3.43,0,5.35-0.07v-2.16c-2.27-0.29-3.76-1.65-3.76-3.61c0-2.22,1.91-3.65,4.66-3.65c2.75,0,4.67,1.43,4.67,3.65
		c0,1.96-1.5,3.32-3.76,3.61V499.56z M741.3,489.04h-11.79v-1.43h5.02v-2.38h1.8v2.38h4.97V489.04z M735.43,496.11
		c1.76,0,2.95-0.88,2.95-2.25s-1.19-2.27-2.95-2.27c-1.76,0-2.95,0.9-2.95,2.27S733.67,496.11,735.43,496.11z M747.69,495.12h-3.08
		v9.83h-1.8v-19.74h1.8v8.38h3.08V495.12z"/>
	<path d="M767.53,495.31v1.45h-7.92v3.98h-1.8v-3.98h-8.21v-1.45H767.53z M753.69,503.04h11.84v1.47h-13.64v-5.63h1.8V503.04z
		 M765.2,493.07h-13.27v-6.93h13.27V493.07z M763.42,487.59h-9.72v4.03h9.72V487.59z"/>
	<path d="M786.14,485.22v11.64h-1.83v-2.84h-5c-0.92,1.12-2.35,1.8-4.07,1.8c-2.9,0-5.06-1.98-5.06-4.78c0-2.77,2.16-4.73,5.06-4.73
		c1.72,0,3.17,0.68,4.09,1.8h4.97v-2.88L786.14,485.22z M778.62,491.05c0-1.85-1.43-3.19-3.37-3.19c-1.91,0-3.34,1.34-3.34,3.19
		c0,1.89,1.43,3.23,3.34,3.23C777.19,494.28,778.62,492.94,778.62,491.05z M772.94,497.93h13.2v7.04h-1.83v-5.57h-11.38V497.93z
		 M784.32,492.54v-2.97h-4.2c0.13,0.46,0.22,0.95,0.22,1.47c0,0.55-0.09,1.03-0.22,1.5H784.32z"/>
</g>
<g>
	<path d="M1008.68,337.33c-2.95,0-5.15-2-5.15-4.86s2.2-4.86,5.15-4.86s5.15,2,5.15,4.86S1011.63,337.33,1008.68,337.33z
		 M1008.68,335.76c1.94,0,3.39-1.36,3.39-3.3c0-1.94-1.45-3.3-3.39-3.3c-1.94,0-3.39,1.36-3.39,3.3
		C1005.3,334.4,1006.75,335.76,1008.68,335.76z M1008,344.04h11.35v1.47h-13.16v-6.25h1.8V344.04z M1021.38,332.22v1.5h-2.9v7.02
		h-1.8v-14.52h1.8v6.01H1021.38z"/>
	<path d="M1033.24,335.68v3.61h5.88v6.65h-1.8v-5.19h-12.01v-1.45h6.14v-3.61h-8.03v-1.47h13.29c0.53-2.38,0.53-4.11,0.53-5.59
		h-11.53v-1.45H1039v1.43c0,1.47,0,3.28-0.48,5.61h2.79v1.47H1033.24z"/>
	<path d="M1059.9,326.22v11.64h-1.83v-2.84h-4.99c-0.92,1.12-2.35,1.8-4.07,1.8c-2.91,0-5.06-1.98-5.06-4.78
		c0-2.77,2.16-4.73,5.06-4.73c1.72,0,3.17,0.68,4.09,1.8h4.97v-2.88L1059.9,326.22z M1052.38,332.05c0-1.85-1.43-3.19-3.37-3.19
		c-1.92,0-3.34,1.34-3.34,3.19c0,1.89,1.43,3.23,3.34,3.23C1050.95,335.28,1052.38,333.94,1052.38,332.05z M1046.7,338.93h13.2v7.04
		h-1.83v-5.57h-11.38V338.93z M1058.08,333.54v-2.97h-4.2c0.13,0.46,0.22,0.95,0.22,1.47c0,0.55-0.09,1.03-0.22,1.5H1058.08z"/>
</g>
<g>
	<path d="M789.89,336.8h-8.82v7.72h-3.3v-7.72h-8.67v-2.63h20.79V336.8z M770.07,330.28c4.7-0.58,7.15-2.83,7.47-5.02h-6.62v-2.62
		h17.07v2.62h-6.52c0.33,2.2,2.75,4.45,7.42,5.02l-1.17,2.57c-4.02-0.55-6.85-2.27-8.22-4.62c-1.37,2.35-4.2,4.07-8.22,4.62
		L770.07,330.28z"/>
	<path d="M800.39,328.63c0,3.25,1.63,6.97,5.22,8.7l-1.75,2.5c-2.45-1.12-4.12-3.27-5.07-5.82c-1,2.75-2.77,5.07-5.35,6.22
		l-1.77-2.52c3.72-1.72,5.45-5.62,5.45-9.07v-0.8h-4.67v-2.62h4.67V322h3.3v3.2h4.55v2.62h-4.57V328.63z M813.44,333.13h-3.35v11.35
		h-3.3v-22.99h3.3v8.92h3.35V333.13z"/>
	<path d="M827.22,334.45c-2.52-0.75-4.27-2.27-5.27-4.17c-1.02,2.27-2.85,4.1-5.55,4.97l-1.65-2.57c3.72-1.25,5.37-4.17,5.42-7.05
		h-4.57v-2.65h12.45v2.65h-4.5c0.05,2.62,1.63,5.2,5.25,6.27L827.22,334.45z M833.44,340.02c0,2.8-3,4.45-7.77,4.45
		c-4.8,0-7.8-1.65-7.8-4.45c0-2.82,3-4.5,7.8-4.5C830.44,335.53,833.44,337.2,833.44,340.02z M830.17,340.02
		c0-1.32-1.57-1.95-4.5-1.95c-2.95,0-4.52,0.63-4.52,1.95c0,1.3,1.57,1.92,4.52,1.92C828.59,341.95,830.17,341.32,830.17,340.02z
		 M836.24,326.75v2.7h-3.05v5.67h-3.3v-13.67h3.3v5.3H836.24z"/>
</g>
<g>
	<path class="st4" d="M608.41,273.95c-1.58,4.01-5.14,6.75-10.76,8.32l-1.41-2.88c5.81-1.55,8.6-4.29,9.07-7.74h-7.69v-2.93h11.67
		c0,0.8-0.06,1.58-0.17,2.32h4.56v-4.04h3.65v14.65h-3.65v-2.43h-5.61v-2.93h5.61v-2.35H608.41z M617.51,287.16
		c0,3.18-3.4,5.17-8.57,5.17c-5.2,0-8.6-1.99-8.6-5.17c0-3.18,3.4-5.17,8.6-5.17C614.11,281.99,617.51,283.98,617.51,287.16z
		 M613.91,287.16c0-1.55-1.85-2.35-4.98-2.35c-3.15,0-5,0.8-5,2.35c0,1.55,1.85,2.35,5,2.35
		C612.06,289.51,613.91,288.71,613.91,287.16z"/>
	<path class="st4" d="M644.53,279.59v2.9H621.5v-2.9h9.65v-2.1h-6.72v-9.82h3.62v2.24h9.93v-2.24h3.62v9.82h-6.8v2.1H644.53z
		 M624.04,284.23h17.7v8.27h-3.65v-5.36h-14.05V284.23z M628.05,274.64h9.93v-1.99h-9.93V274.64z"/>
	<path class="st4" d="M660.27,279.61v3.12c4.45,0.36,7.13,2.1,7.13,4.84c0,3.12-3.43,4.92-8.96,4.92s-8.93-1.8-8.93-4.92
		c0-2.74,2.65-4.48,7.11-4.84v-3.12h-9.68v-2.9h16.2c0.47-2.35,0.55-4.2,0.55-5.89h-13.91v-2.9h17.5v2.02c0,1.88,0,4.06-0.5,6.77
		H670v2.9H660.27z M658.44,285.56c-3.46,0-5.25,0.64-5.25,2.02c0,1.41,1.8,2.02,5.25,2.02s5.28-0.61,5.28-2.02
		C663.72,286.19,661.9,285.56,658.44,285.56z"/>
</g>
<g>
	<path d="M209.67,331.32c-1.28,3.17-4.27,5.48-8.52,6.71l-0.73-1.43c4.71-1.41,7.63-4.03,7.96-7.44h-6.95v-1.45h8.91
		c0,0.73-0.09,1.45-0.22,2.13h4.47v-3.61h1.83v11.79h-1.83v-2.6h-5.17v-1.47h5.17v-2.64H209.67z M216.51,342.06
		c0,2.38-2.55,3.81-6.54,3.81s-6.53-1.43-6.53-3.81s2.55-3.81,6.53-3.81S216.51,339.68,216.51,342.06z M214.73,342.06
		c0-1.47-1.85-2.38-4.75-2.38s-4.75,0.9-4.75,2.38c0,1.5,1.85,2.4,4.75,2.4S214.73,343.55,214.73,342.06z"/>
	<path d="M238.25,336.4v1.47h-17.87v-1.47h8.05v-2.35h-5.68v-7.37h1.78v2.24h9.59v-2.24h1.78v7.37h-5.68v2.35H238.25z
		 M222.38,339.79h13.66v6.16h-1.8v-4.71h-11.86V339.79z M224.54,332.62h9.59v-2.29h-9.59V332.62z"/>
	<path d="M250.48,335.57v3.1c3.67,0.18,5.9,1.45,5.9,3.61c0,2.33-2.57,3.65-6.8,3.65c-4.29,0-6.87-1.32-6.87-3.65
		c0-2.16,2.22-3.43,5.94-3.61v-3.1h-8.01v-1.45h13.27c0.55-2.38,0.55-4.11,0.55-5.59h-11.53v-1.47h13.31v1.43
		c0,1.47,0,3.26-0.51,5.63h2.79v1.45H250.48z M249.58,340.1c-3.17,0-5.06,0.79-5.06,2.18c0,1.41,1.89,2.2,5.06,2.2
		c3.1,0,4.99-0.79,4.99-2.2C254.57,340.89,252.68,340.1,249.58,340.1z"/>
	<path d="M277.14,326.22v11.64h-1.83v-2.84h-5c-0.92,1.12-2.35,1.8-4.07,1.8c-2.9,0-5.06-1.98-5.06-4.78c0-2.77,2.16-4.73,5.06-4.73
		c1.72,0,3.17,0.68,4.09,1.8h4.97v-2.88L277.14,326.22z M269.62,332.05c0-1.85-1.43-3.19-3.37-3.19c-1.91,0-3.34,1.34-3.34,3.19
		c0,1.89,1.43,3.23,3.34,3.23C268.19,335.28,269.62,333.94,269.62,332.05z M263.94,338.93h13.2v7.04h-1.83v-5.57h-11.38V338.93z
		 M275.32,333.54v-2.97h-4.2c0.13,0.46,0.22,0.95,0.22,1.47c0,0.55-0.09,1.03-0.22,1.5H275.32z"/>
</g>
<g>
	<g>
		<polygon class="st5" points="633.8,180.41 633.69,180.41 598.61,180.41 598.61,191.24 633.69,191.24 633.8,191.24 668.88,191.24 
			668.88,180.41 		"/>
		<g>
			<path class="st6" d="M695.69,195.05c-11.4,0.12-26.8-3.81-26.8-3.81h-34.76h-0.75h-34.76c0,0-15.41,3.93-26.8,3.81
				c0,0,8.2,6.37,61.28,6.48l0,0c0.22,0,0.44,0,0.66,0c0.22,0,0.44,0,0.66,0v0C687.49,201.42,695.69,195.05,695.69,195.05z"/>
			<path class="st7" d="M693.28,196.68c-10.95,0.14-25.76-4.27-25.76-4.27h-33.41h-0.72h-33.41c0,0-14.81,4.41-25.76,4.27
				c0,0,7.88,7.15,58.9,7.26v0c0.21,0,0.42,0,0.63,0c0.21,0,0.42,0,0.63,0v0C685.4,203.82,693.28,196.68,693.28,196.68z"/>
			<g>
				<g>
					<path class="st8" d="M577.55,196.59v1.73c0.43,0.16,0.91,0.33,1.45,0.5v-2.33C578.51,196.53,578.03,196.57,577.55,196.59z"/>
					<path class="st8" d="M581.77,196.21v3.41c0.46,0.12,0.94,0.24,1.45,0.36v-3.95C582.74,196.09,582.25,196.15,581.77,196.21z"/>
					<path class="st8" d="M586,195.59v4.98c0.46,0.09,0.95,0.18,1.45,0.28v-5.51C586.97,195.42,586.48,195.51,586,195.59z"/>
					<path class="st8" d="M590.22,194.8v6.52c0.47,0.07,0.95,0.15,1.45,0.22v-7.04C591.2,194.59,590.72,194.7,590.22,194.8z"/>
					<path class="st8" d="M594.45,193.86v8.06c0.47,0.06,0.95,0.12,1.45,0.18v-8.59C595.44,193.61,594.96,193.73,594.45,193.86z"/>
					<path class="st8" d="M599.97,192.4c0,0-0.47,0.14-1.3,0.37v9.63c0.47,0.05,0.95,0.1,1.45,0.15V192.4H599.97z"/>
					<path class="st8" d="M602.9,192.4v10.4c0.47,0.04,0.96,0.08,1.45,0.12V192.4H602.9z"/>
					<path class="st8" d="M607.12,192.4v10.72c0.47,0.03,0.96,0.06,1.45,0.09V192.4H607.12z"/>
					<path class="st8" d="M611.35,192.4v10.98c0.48,0.03,0.96,0.05,1.45,0.07V192.4H611.35z"/>
					<path class="st8" d="M615.57,192.4v11.18c0.48,0.02,0.96,0.04,1.45,0.06V192.4H615.57z"/>
					<path class="st8" d="M619.8,192.4v11.33c0.48,0.01,0.96,0.03,1.45,0.04V192.4H619.8z"/>
					<path class="st8" d="M624.03,192.4v11.44c0.48,0.01,0.96,0.02,1.45,0.03V192.4H624.03z"/>
					<path class="st8" d="M628.25,192.4v11.5c0.48,0.01,0.96,0.01,1.45,0.01V192.4H628.25z"/>
					<path class="st8" d="M633.38,192.4h-0.91v11.53c0.21,0,0.42,0,0.64,0v0c0.21,0,0.42,0,0.63,0c0.06,0,0.12,0,0.18,0V192.4
						H633.38z"/>
					<path class="st8" d="M636.7,192.4v11.53c0.49,0,0.97-0.01,1.45-0.01V192.4H636.7z"/>
					<path class="st8" d="M640.93,192.4v11.48c0.49-0.01,0.97-0.02,1.45-0.02V192.4H640.93z"/>
					<path class="st8" d="M645.15,192.4v11.4c0.49-0.01,0.97-0.02,1.45-0.04V192.4H645.15z"/>
					<path class="st8" d="M649.38,192.4v11.27c0.49-0.02,0.97-0.03,1.45-0.05V192.4H649.38z"/>
					<path class="st8" d="M653.6,192.4v11.1c0.49-0.02,0.97-0.05,1.45-0.07V192.4H653.6z"/>
					<path class="st8" d="M657.83,192.4v10.88c0.49-0.03,0.97-0.06,1.45-0.09V192.4H657.83z"/>
					<path class="st8" d="M662.05,192.4V203c0.49-0.04,0.97-0.07,1.45-0.11V192.4H662.05z"/>
					<path class="st8" d="M667.52,192.4h-1.26v10.25c0.49-0.04,0.97-0.09,1.45-0.14v-10.06C667.58,192.42,667.52,192.4,667.52,192.4
						z"/>
					<path class="st8" d="M670.48,193.22v9.01c0.49-0.06,0.97-0.11,1.45-0.17v-8.47C671.4,193.45,670.92,193.33,670.48,193.22z"/>
					<path class="st8" d="M674.7,194.24v7.45c0.49-0.07,0.98-0.14,1.45-0.21v-6.93C675.65,194.45,675.17,194.35,674.7,194.24z"/>
					<path class="st8" d="M678.93,195.13v5.91c0.5-0.09,0.98-0.17,1.45-0.26v-5.39C679.89,195.31,679.4,195.22,678.93,195.13z"/>
					<path class="st8" d="M683.15,195.86v4.37c0.51-0.11,0.99-0.22,1.45-0.33v-3.83C684.11,196,683.63,195.93,683.15,195.86z"/>
					<path class="st8" d="M687.38,196.39v2.77c0.52-0.15,1.01-0.3,1.45-0.45v-2.19C688.34,196.48,687.86,196.44,687.38,196.39z"/>
					<path class="st8" d="M691.6,196.66v0.97c0.75-0.35,1.21-0.62,1.45-0.79v-0.17C692.57,196.68,692.09,196.68,691.6,196.66z"/>
				</g>
			</g>
			<path class="st9" d="M633.69,198.56c0,0-54.07,0.98-61.89-3.51c0,0,4.11,5.62,17.34,8.43h44.54h44.12
				c13.23-2.81,17.76-8.43,17.76-8.43C687.76,199.54,633.69,198.56,633.69,198.56z"/>
		</g>
		<g>
			<path class="st6" d="M690.1,174.71c-10.37,0.13-24.39-11.69-24.39-11.69s-2.58,0.26-6.28,0.64c-17.02,1.75-34.18,1.75-51.2,0.02
				l-6.47-0.66c0,0-14.02,11.82-24.39,11.69c0,0,7.46,6.84,55.76,6.95l0,0c0.2,0,0.4,0,0.6,0c0.2,0,0.4,0,0.6,0v0
				C682.65,181.54,690.1,174.71,690.1,174.71z"/>
			<path class="st7" d="M687.91,175.5c-9.97,0.18-23.44-9.25-23.44-9.25l-30.4,2.68h-0.66l-30.4-2.68c0,0-13.47,9.43-23.44,9.25
				c0,0,7.17,6,53.59,6.15c0,0,0.38,0,0.58,0c0.19,0,0.58,0,0.58,0C680.74,181.5,687.91,175.5,687.91,175.5z"/>
			<g>
				<path class="st7" d="M613.37,178.5v-11.33l-2.53-0.22v11.51C611.69,178.47,612.53,178.49,613.37,178.5z"/>
				<path class="st7" d="M628.75,178.54v-10.02l-2.53-0.22v10.26C627.13,178.55,627.97,178.55,628.75,178.54z"/>
				<path class="st7" d="M632.59,178.49v-9.63l-2.53-0.22v9.89C631.12,178.52,631.97,178.5,632.59,178.49z"/>
				<path class="st7" d="M617.21,178.55v-11.04l-2.53-0.22v11.23C615.54,178.53,616.38,178.54,617.21,178.55z"/>
				<path class="st7" d="M621.06,178.57v-10.72l-2.53-0.22v10.93C619.39,178.56,620.24,178.57,621.06,178.57z"/>
				<path class="st7" d="M636.43,178.52v-9.79l-2.36,0.21h-0.17v9.54C634.28,178.48,635.16,178.5,636.43,178.52z"/>
				<path class="st7" d="M624.9,178.57v-10.38l-2.53-0.22v10.61C623.25,178.57,624.1,178.57,624.9,178.57z"/>
				<path class="st7" d="M663.32,178.27v-11.91l-2.51,0.22v11.77C661.65,178.33,662.49,178.3,663.32,178.27z"/>
				<path class="st7" d="M651.81,178.53v-11.16l-2.53,0.22v10.96C650.11,178.55,650.95,178.54,651.81,178.53z"/>
				<path class="st7" d="M659.5,178.39V166.7l-2.53,0.22v11.53C657.81,178.43,658.65,178.41,659.5,178.39z"/>
				<path class="st7" d="M640.28,178.55v-10.17l-2.53,0.22v9.92C638.51,178.54,639.35,178.55,640.28,178.55z"/>
				<path class="st7" d="M647.97,178.56v-10.85l-2.53,0.22v10.64C646.26,178.57,647.1,178.57,647.97,178.56z"/>
				<path class="st7" d="M644.12,178.57v-10.52l-2.53,0.22v10.29C642.39,178.57,643.24,178.57,644.12,178.57z"/>
				<path class="st7" d="M655.66,178.47v-11.44l-2.53,0.22v11.26C653.96,178.5,654.8,178.49,655.66,178.47z"/>
				<path class="st7" d="M582.61,175.3c-1.03,0.15-2.05,0.23-3.03,0.21c0,0,0.07,0.09,0.25,0.24c0.81,0.24,1.74,0.46,2.79,0.66
					V175.3z"/>
				<path class="st7" d="M609.52,178.43v-11.6l-2.53-0.22v11.75C607.84,178.39,608.68,178.41,609.52,178.43z"/>
				<path class="st7" d="M586.46,177.01v-2.57c-0.84,0.25-1.69,0.46-2.53,0.63v1.57C584.72,176.77,585.57,176.9,586.46,177.01z"/>
				<path class="st7" d="M605.68,178.32v-11.83l-2.53-0.22v11.97C603.99,178.27,604.83,178.3,605.68,178.32z"/>
				<path class="st7" d="M597.99,178v-8.63c-0.78,0.44-1.63,0.9-2.53,1.37v7.11C596.29,177.9,597.14,177.95,597.99,178z"/>
				<path class="st7" d="M601.83,178.18v-11.14c-0.63,0.41-1.49,0.95-2.53,1.56v9.46C600.14,178.11,600.99,178.15,601.83,178.18z"/>
				<path class="st7" d="M594.14,177.76v-6.36c-0.81,0.4-1.66,0.79-2.53,1.16v5C592.44,177.63,593.28,177.69,594.14,177.76z"/>
				<path class="st7" d="M590.3,177.44v-4.34c-0.83,0.33-1.68,0.64-2.53,0.93v3.14C588.59,177.27,589.43,177.36,590.3,177.44z"/>
				<path class="st7" d="M678.7,177.28v-3.6c-0.86-0.31-1.7-0.64-2.53-0.99v4.84C677.04,177.45,677.88,177.36,678.7,177.28z"/>
				<path class="st7" d="M687.72,175.7c0.14-0.13,0.2-0.19,0.2-0.19c-1.3,0.02-2.67-0.12-4.05-0.38v1.45
					C685.35,176.32,686.65,176.03,687.72,175.7z"/>
				<path class="st7" d="M682.55,176.79v-1.95c-0.84-0.2-1.69-0.44-2.53-0.72v3C680.9,177.02,681.74,176.91,682.55,176.79z"/>
				<path class="st7" d="M674.86,177.63v-5.53c-0.87-0.4-1.72-0.81-2.53-1.22v6.93C673.18,177.76,674.03,177.7,674.86,177.63z"/>
				<path class="st7" d="M671.01,177.9v-7.71c-0.92-0.49-1.77-0.97-2.53-1.42v9.26C669.33,178,670.18,177.95,671.01,177.9z"/>
				<path class="st7" d="M667.17,178.11V168c-1.28-0.79-2.18-1.38-2.53-1.62v11.85C665.48,178.19,666.33,178.15,667.17,178.11z"/>
				<path class="st8" d="M583.93,176.64v-1.57c-0.44,0.09-0.88,0.16-1.32,0.23v1.11C583.03,176.49,583.47,176.57,583.93,176.64z"/>
				<path class="st8" d="M587.77,177.17v-3.14c-0.44,0.15-0.88,0.28-1.32,0.41v2.57C586.88,177.07,587.32,177.12,587.77,177.17z"/>
				<path class="st8" d="M591.62,177.56v-5c-0.43,0.19-0.87,0.37-1.32,0.55v4.34C590.73,177.48,591.17,177.52,591.62,177.56z"/>
				<path class="st8" d="M595.46,177.85v-7.11c-0.43,0.22-0.87,0.44-1.32,0.66v6.36C594.58,177.79,595.02,177.82,595.46,177.85z"/>
				<path class="st8" d="M599.3,178.07v-9.46c-0.41,0.24-0.85,0.5-1.32,0.76V178C598.43,178.02,598.86,178.04,599.3,178.07z"/>
				<path class="st8" d="M603.15,178.24v-11.97l-0.13-0.01c0,0-0.43,0.3-1.18,0.79v11.14C602.27,178.2,602.71,178.22,603.15,178.24z
					"/>
				<path class="st8" d="M606.99,178.36v-11.75l-1.32-0.12v11.83C606.12,178.34,606.56,178.35,606.99,178.36z"/>
				<path class="st8" d="M610.84,178.46v-11.51l-1.32-0.12v11.6C609.96,178.44,610.4,178.45,610.84,178.46z"/>
				<path class="st8" d="M614.68,178.52v-11.23l-1.32-0.12v11.33C613.81,178.51,614.25,178.51,614.68,178.52z"/>
				<path class="st8" d="M618.53,178.56v-10.93l-1.32-0.12v11.04C617.66,178.55,618.09,178.55,618.53,178.56z"/>
				<path class="st8" d="M622.37,178.57v-10.61l-1.32-0.12v10.72C621.5,178.57,621.94,178.57,622.37,178.57z"/>
				<path class="st8" d="M626.22,178.56V168.3l-1.32-0.12v10.38C625.35,178.56,625.79,178.56,626.22,178.56z"/>
				<path class="st8" d="M630.06,178.53v-9.89l-1.32-0.12v10.02C629.21,178.54,629.65,178.53,630.06,178.53z"/>
				<path class="st8" d="M633.7,178.47c0,0,0.07,0,0.21,0v-9.54h-0.49l-0.83-0.07v9.63C633.31,178.48,633.7,178.47,633.7,178.47z"/>
				<path class="st8" d="M637.75,178.53v-9.92l-1.32,0.12v9.79C636.84,178.52,637.27,178.53,637.75,178.53z"/>
				<path class="st8" d="M641.59,178.56v-10.29l-1.32,0.12v10.17C640.7,178.56,641.14,178.56,641.59,178.56z"/>
				<path class="st8" d="M645.44,178.57v-10.64l-1.32,0.12v10.52C644.55,178.57,644.99,178.57,645.44,178.57z"/>
				<path class="st8" d="M649.28,178.55V167.6l-1.32,0.12v10.85C648.4,178.56,648.84,178.56,649.28,178.55z"/>
				<path class="st8" d="M653.13,178.51v-11.26l-1.32,0.12v11.16C652.25,178.53,652.69,178.52,653.13,178.51z"/>
				<path class="st8" d="M656.97,178.45v-11.53l-1.32,0.12v11.44C656.09,178.47,656.53,178.46,656.97,178.45z"/>
				<path class="st8" d="M660.82,178.35v-11.77l-1.32,0.12v11.69C659.94,178.38,660.38,178.36,660.82,178.35z"/>
				<path class="st8" d="M664.64,178.22v-11.85c-0.11-0.07-0.16-0.11-0.16-0.11l-1.15,0.1v11.91
					C663.76,178.25,664.2,178.24,664.64,178.22z"/>
				<path class="st8" d="M668.48,178.05v-9.26c-0.47-0.28-0.91-0.54-1.32-0.79v10.12C667.61,178.09,668.05,178.07,668.48,178.05z"/>
				<path class="st8" d="M672.33,177.82v-6.93c-0.45-0.23-0.89-0.46-1.32-0.69v7.71C671.45,177.88,671.89,177.85,672.33,177.82z"/>
				<path class="st8" d="M676.17,177.52v-4.84c-0.44-0.19-0.88-0.38-1.32-0.58v5.53C675.3,177.6,675.74,177.56,676.17,177.52z"/>
				<path class="st8" d="M680.02,177.13v-3c-0.44-0.14-0.88-0.29-1.32-0.45v3.6C679.15,177.23,679.59,177.18,680.02,177.13z"/>
				<path class="st8" d="M683.86,176.57v-1.45c-0.44-0.08-0.88-0.18-1.32-0.28v1.95C683,176.72,683.44,176.65,683.86,176.57z"/>
				<path class="st9" d="M618.53,183.75h2.53h1.32h2.53h1.32h2.53h1.32h2.53h1.11h0.21h2.53h1.32h2.53h1.32h2.53h1.32h2.53h1.32
					h2.06c28-1.66,37.57-7.96,38.76-9.04c-1.06,0.33-4.75,1.61-6.24,1.87c-0.42,0.07-0.86,0.14-1.32,0.21
					c-0.8,0.12-1.65,0.23-2.53,0.34c-0.43,0.05-0.87,0.1-1.32,0.15c-0.82,0.09-1.66,0.17-2.53,0.25c-0.43,0.04-0.87,0.08-1.32,0.11
					c-0.83,0.07-1.67,0.13-2.53,0.19c-0.44,0.03-0.87,0.06-1.32,0.08c-0.83,0.05-1.68,0.1-2.53,0.14c-0.44,0.02-0.88,0.04-1.32,0.06
					c-0.84,0.04-1.68,0.08-2.53,0.11c-0.44,0.02-0.88,0.03-1.32,0.05c-0.83,0.03-1.67,0.06-2.51,0.08
					c-0.44,0.01-0.88,0.03-1.32,0.04c-0.85,0.02-1.69,0.04-2.53,0.06c-0.44,0.01-0.88,0.02-1.32,0.03c-0.85,0.02-1.7,0.03-2.53,0.04
					c-0.44,0.01-0.88,0.01-1.32,0.02c-0.86,0.01-1.7,0.02-2.53,0.02c-0.44,0-0.88,0.01-1.32,0.01c-0.87,0-1.71,0.01-2.53,0.01
					c-0.45,0-0.89,0-1.32,0c-0.88,0-1.73,0-2.53-0.01c-0.45,0-0.89,0-1.32-0.01c-0.93-0.01-1.77-0.01-2.53-0.02
					c-0.48-0.01-0.91-0.01-1.32-0.02c-1.27-0.02-2.15-0.03-2.53-0.04c-0.14,0-0.21,0-0.21,0s-0.39,0.01-1.11,0.02
					c-0.62,0.01-1.47,0.02-2.53,0.04c-0.41,0-0.85,0.01-1.32,0.01c-0.77,0.01-1.62,0.01-2.53,0.02c-0.42,0-0.86,0-1.32,0.01
					c-0.8,0-1.65,0-2.53,0c-0.43,0-0.87,0-1.32,0c-0.82,0-1.66-0.01-2.53-0.01c-0.43,0-0.87-0.01-1.32-0.01
					c-0.83-0.01-1.67-0.02-2.53-0.03c-0.44-0.01-0.87-0.01-1.32-0.02c-0.83-0.01-1.68-0.03-2.53-0.04
					c-0.44-0.01-0.88-0.02-1.32-0.03c-0.84-0.02-1.68-0.04-2.53-0.06c-0.44-0.01-0.88-0.03-1.32-0.04
					c-0.84-0.03-1.69-0.06-2.53-0.09c-0.44-0.02-0.88-0.03-1.32-0.05c-0.85-0.04-1.69-0.07-2.53-0.12
					c-0.44-0.02-0.88-0.05-1.32-0.07c-0.85-0.05-1.7-0.1-2.53-0.15c-0.44-0.03-0.88-0.06-1.32-0.09c-0.86-0.06-1.7-0.13-2.53-0.2
					c-0.44-0.04-0.88-0.08-1.32-0.12c-0.87-0.08-1.71-0.17-2.53-0.27c-0.45-0.05-0.89-0.11-1.32-0.16
					c-0.89-0.12-1.73-0.24-2.53-0.37c-0.46-0.08-0.89-0.15-1.32-0.24c-1.04-0.2-4.42-1.46-5.22-1.7c1.33,1.18,11.13,7.4,38.76,9.04
					h1.06H618.53z"/>
			</g>
		</g>
		<rect x="589.15" y="208.58" class="st10" width="44.4" height="12.85"/>
		<rect x="609.97" y="208.49" class="st11" width="1.17" height="12.85"/>
		<rect x="613.26" y="208.49" class="st11" width="1.17" height="12.85"/>
		<rect x="616.55" y="208.49" class="st11" width="1.17" height="12.85"/>
		<rect x="589.15" y="208.58" class="st12" width="16.39" height="12.85"/>
		<rect x="603.28" y="208.58" class="st13" width="4.52" height="12.85"/>
		<rect x="589.15" y="208.58" class="st13" width="7.46" height="12.85"/>
		<rect x="589.15" y="208.58" class="st5" width="2.89" height="12.85"/>
		<rect x="633.41" y="208.58" class="st10" width="44.4" height="12.85"/>
		<rect x="649.55" y="208.58" class="st11" width="1.17" height="12.85"/>
		<rect x="652.84" y="208.58" class="st11" width="1.17" height="12.85"/>
		<rect x="656.13" y="208.58" class="st11" width="1.17" height="12.85"/>
		<polygon class="st12" points="634.35,208.58 633.41,208.58 623.37,208.58 623.37,221.43 633.41,221.43 634.35,221.43 
			643.6,221.43 643.6,208.58 		"/>
		<rect x="661.43" y="208.58" class="st12" width="16.39" height="12.85"/>
		<rect x="659.17" y="208.58" class="st13" width="4.52" height="12.85"/>
		<rect x="670.36" y="208.58" class="st13" width="7.46" height="12.85"/>
		<rect x="674.93" y="208.58" class="st5" width="2.89" height="12.85"/>
		<rect x="639.57" y="208.58" class="st13" width="8.06" height="12.85"/>
		<rect x="645.26" y="208.58" class="st5" width="2.37" height="12.85"/>
		<rect x="589.15" y="221.18" class="st12" width="88.67" height="4.69"/>
		<polygon class="st14" points="633.55,203.27 633.41,203.27 589.15,203.27 589.15,208.58 633.41,208.58 633.55,208.58 
			677.82,208.58 677.82,203.27 		"/>
		<rect x="619.34" y="208.58" class="st13" width="8.06" height="12.85"/>
		<rect x="603.28" y="218.6" class="st11" width="4.52" height="2.83"/>
		<rect x="589.15" y="218.6" class="st11" width="7.46" height="2.83"/>
		<rect x="659.17" y="218.6" class="st11" width="4.52" height="2.83"/>
		<rect x="670.36" y="218.6" class="st11" width="7.46" height="2.83"/>
		<rect x="639.57" y="218.6" class="st11" width="8.06" height="2.83"/>
		<rect x="619.34" y="218.6" class="st11" width="8.06" height="2.83"/>
		<rect x="619.34" y="208.58" class="st5" width="2.37" height="12.85"/>
		<g>
			<rect x="590.99" y="204.92" class="st15" width="3.27" height="1.79"/>
			<rect x="601.85" y="204.92" class="st15" width="3.27" height="1.79"/>
			<rect x="608.67" y="204.92" class="st15" width="3.27" height="1.79"/>
			<rect x="619.53" y="204.92" class="st15" width="3.27" height="1.79"/>
			<rect x="626.34" y="204.92" class="st15" width="3.27" height="1.79"/>
			<rect x="637.21" y="204.92" class="st15" width="3.27" height="1.79"/>
			<rect x="644.02" y="204.92" class="st15" width="3.27" height="1.79"/>
			<rect x="654.88" y="204.92" class="st15" width="3.27" height="1.79"/>
			<rect x="661.7" y="204.92" class="st15" width="3.27" height="1.79"/>
			<rect x="672.56" y="204.92" class="st15" width="3.27" height="1.79"/>
		</g>
		<rect x="606.08" y="203.27" class="st5" width="1.37" height="5.31"/>
		<rect x="623.89" y="203.27" class="st5" width="1.37" height="5.31"/>
		<rect x="641.54" y="203.27" class="st5" width="1.37" height="5.31"/>
		<rect x="659.17" y="203.27" class="st5" width="1.37" height="5.31"/>
		<g>
			<g>
				<rect x="601.64" y="185.26" class="st14" width="3.31" height="3.31"/>
				<rect x="609.19" y="185.26" class="st14" width="3.31" height="3.31"/>
				<rect x="616.73" y="185.26" class="st14" width="3.31" height="3.31"/>
				<rect x="624.27" y="185.26" class="st14" width="3.31" height="3.31"/>
				<rect x="631.82" y="185.26" class="st14" width="3.31" height="3.31"/>
				<rect x="639.36" y="185.26" class="st14" width="3.31" height="3.31"/>
				<rect x="646.9" y="185.26" class="st14" width="3.31" height="3.31"/>
				<rect x="654.45" y="185.26" class="st14" width="3.31" height="3.31"/>
				<rect x="661.99" y="185.26" class="st14" width="3.31" height="3.31"/>
			</g>
		</g>
	</g>
	<g>
		<g>
			<rect x="533.38" y="225.93" class="st16" width="66.66" height="10.39"/>
			<rect x="510.01" y="236.32" class="st6" width="90.03" height="14.39"/>
			<path class="st17" d="M593.01,222h-7.46v-1.73h-0.88V222h-8.31v-1.73h-0.88V222h-7.2v-1.73h-0.91V222h-7.62v-1.73h-0.88V222
				h-7.62v-1.73h-0.88V222h-7.62v-1.73h-0.88V222h-7.62v-1.73h-0.88v5.66h59.63V222z M537.51,224.17h-2.07v-1.12h2.07V224.17z
				 M540.51,224.17h-2.07v-1.12h2.07V224.17z M546.01,224.17h-2.07v-1.12h2.07V224.17z M549.01,224.17h-2.07v-1.12h2.07V224.17z
				 M554.51,224.17h-2.07v-1.12h2.07V224.17z M557.51,224.17h-2.07v-1.12h2.07V224.17z M563.01,224.17h-2.07v-1.12h2.07V224.17z
				 M566.01,224.17h-2.07v-1.12h2.07V224.17z M571.53,224.17h-2.07v-1.12h2.07V224.17z M574.53,224.17h-2.07v-1.12h2.07V224.17z
				 M580.3,224.17h-2.07v-1.12h2.07V224.17z M583.3,224.17h-2.07v-1.12h2.07V224.17z M588.8,224.17h-2.07v-1.12h2.07V224.17z
				 M589.73,224.17v-1.12h2.07v1.12H589.73z"/>
			<path class="st17" d="M589.28,232.39h-1.08v-1.73h-0.88v1.73h-7.62v-1.73h-0.88v1.73h-7.62v-1.73h-0.88v1.73h-8.14v-1.73h-0.88
				v1.73h-8.31v-1.73h-0.88v1.73h-7.2v-1.73h-0.91v1.73h-7.62v-1.73h-0.88v1.73h-7.62v-1.73h-0.88v1.73h-7.62v-1.73h-0.88v1.73
				h-7.62v-1.73h-0.88v5.66h79.28V232.39z M514.14,234.55h-2.07v-1.12h2.07V234.55z M517.14,234.55h-2.07v-1.12h2.07V234.55z
				 M522.64,234.55h-2.07v-1.12h2.07V234.55z M525.64,234.55h-2.07v-1.12h2.07V234.55z M531.14,234.55h-2.07v-1.12h2.07V234.55z
				 M534.14,234.55h-2.07v-1.12h2.07V234.55z M539.64,234.55h-2.07v-1.12h2.07V234.55z M542.64,234.55h-2.07v-1.12h2.07V234.55z
				 M548.16,234.55h-2.07v-1.12h2.07V234.55z M551.16,234.55h-2.07v-1.12h2.07V234.55z M556.93,234.55h-2.07v-1.12h2.07V234.55z
				 M559.93,234.55h-2.07v-1.12h2.07V234.55z M566.12,234.55h-2.07v-1.12h2.07V234.55z M569.12,234.55h-2.07v-1.12h2.07V234.55z
				 M574.46,234.55h-2.07v-1.12h2.07V234.55z M577.45,234.55h-2.07v-1.12h2.07V234.55z M582.96,234.55h-2.07v-1.12h2.07V234.55z
				 M585.95,234.55h-2.07v-1.12h2.07V234.55z"/>
		</g>
		<g>
			<rect x="667.46" y="225.93" class="st16" width="66.66" height="10.39"/>
			<rect x="667.46" y="236.32" class="st6" width="90.03" height="14.39"/>
			<path class="st17" d="M674.48,225.93h59.63v-5.66h-0.88V222h-7.62v-1.73h-0.88V222h-7.62v-1.73h-0.88V222h-7.62v-1.73h-0.88V222
				h-7.62v-1.73h-0.91V222h-7.2v-1.73h-0.88V222h-8.31v-1.73h-0.88V222h-7.46V225.93z M729.98,223.05h2.07v1.12h-2.07V223.05z
				 M726.98,223.05h2.07v1.12h-2.07V223.05z M721.48,223.05h2.07v1.12h-2.07V223.05z M718.49,223.05h2.07v1.12h-2.07V223.05z
				 M712.98,223.05h2.07v1.12h-2.07V223.05z M709.99,223.05h2.07v1.12h-2.07V223.05z M704.48,223.05h2.07v1.12h-2.07V223.05z
				 M701.49,223.05h2.07v1.12h-2.07V223.05z M695.96,223.05h2.07v1.12h-2.07V223.05z M692.96,223.05h2.07v1.12h-2.07V223.05z
				 M687.19,223.05h2.07v1.12h-2.07V223.05z M684.19,223.05h2.07v1.12h-2.07V223.05z M678.69,223.05h2.07v1.12h-2.07V223.05z
				 M675.69,224.17v-1.12h2.07v1.12H675.69z"/>
			<path class="st17" d="M678.21,236.32h79.28v-5.66h-0.88v1.73h-7.62v-1.73h-0.88v1.73h-7.62v-1.73h-0.88v1.73h-7.62v-1.73h-0.88
				v1.73h-7.62v-1.73h-0.91v1.73h-7.2v-1.73h-0.88v1.73h-8.31v-1.73h-0.88v1.73h-8.14v-1.73h-0.88v1.73h-7.62v-1.73h-0.88v1.73
				h-7.62v-1.73h-0.88v1.73h-1.08V236.32z M753.35,233.44h2.07v1.12h-2.07V233.44z M750.35,233.44h2.07v1.12h-2.07V233.44z
				 M744.85,233.44h2.07v1.12h-2.07V233.44z M741.85,233.44h2.07v1.12h-2.07V233.44z M736.35,233.44h2.07v1.12h-2.07V233.44z
				 M733.35,233.44h2.07v1.12h-2.07V233.44z M727.85,233.44h2.07v1.12h-2.07V233.44z M724.85,233.44h2.07v1.12h-2.07V233.44z
				 M719.33,233.44h2.07v1.12h-2.07V233.44z M716.33,233.44h2.07v1.12h-2.07V233.44z M710.56,233.44h2.07v1.12h-2.07V233.44z
				 M707.56,233.44h2.07v1.12h-2.07V233.44z M701.37,233.44h2.07v1.12h-2.07V233.44z M698.37,233.44h2.07v1.12h-2.07V233.44z
				 M693.03,233.44h2.07v1.12h-2.07V233.44z M690.04,233.44h2.07v1.12h-2.07V233.44z M684.53,233.44h2.07v1.12h-2.07V233.44z
				 M681.54,233.44h2.07v1.12h-2.07V233.44z"/>
		</g>
		<g>
			<rect x="592.96" y="225.91" class="st18" width="81.55" height="24.81"/>
			<rect x="592.96" y="225.91" class="st7" width="81.55" height="24.81"/>
			<g>
				<g>
					<g>
						<rect x="592.96" y="229.34" class="st19" width="81.55" height="1.3"/>
					</g>
					<g>
						<rect x="592.96" y="233.99" class="st19" width="81.55" height="1.3"/>
					</g>
					<g>
						<rect x="592.96" y="238.65" class="st19" width="81.55" height="1.3"/>
					</g>
					<g>
						<rect x="592.96" y="243.3" class="st19" width="81.55" height="1.3"/>
					</g>
				</g>
			</g>
		</g>
		<rect x="592.74" y="222" class="st20" width="2.15" height="28.69"/>
		<rect x="672.37" y="222" class="st20" width="2.15" height="28.69"/>
	</g>
</g>
</svg>
